<svg width="53" height="31" viewBox="0 0 53 31" fill="none" xmlns="http://www.w3.org/2000/svg">
<path fill-rule="evenodd" clip-rule="evenodd" d="M1.18879 2.12154C0.72817 1.60334 1.09603 0.78418 1.78935 0.78418H45.9583C49.8275 0.78418 52.9643 3.9208 52.9643 7.79002V23.4831C52.9643 27.3522 49.8275 30.4889 45.9583 30.4889H24.2626C23.268 30.4889 22.3209 30.0636 21.6602 29.3203L19.404 26.7821C18.9434 26.2639 19.3112 25.4448 20.0046 25.4448H45.9583C47.0417 25.4448 47.92 24.5665 47.92 23.4831V7.79002C47.92 6.70666 47.0417 5.8284 45.9583 5.8284H6.04739C5.05282 5.8284 4.10572 5.40307 3.44496 4.65972L1.18879 2.12154Z" fill="#02A99B"/>
<path fill-rule="evenodd" clip-rule="evenodd" d="M20.325 0.583496L33.2427 14.6263C33.5735 14.9861 34.1405 14.9887 34.4748 14.632L45.842 2.5008L49.5227 5.9498L38.1557 18.081C35.8159 20.5781 31.847 20.5598 29.5301 18.0413L16.6126 3.99846L20.325 0.583496Z" fill="#02A99B"/>
<path fill-rule="evenodd" clip-rule="evenodd" d="M11.0092 15.0151C10.5454 14.4977 10.9126 13.6753 11.6075 13.6753H19.6784C20.418 13.6753 21.0176 14.2749 21.0176 15.0145V17.3803C21.0176 18.1199 20.418 18.7195 19.6784 18.7195H15.2865C14.6775 18.7195 14.0973 18.4604 13.6909 18.0069L11.0092 15.0151Z" fill="#02A99B"/>
</svg>
