<svg width="102" height="21" viewBox="0 0 102 21" fill="none" xmlns="http://www.w3.org/2000/svg">
<path d="M12.3856 7.71941C12.3856 4.17575 10.2209 1.91602 6.56189 1.91602H0.0680542V19.8911H4.4746V13.5998H6.58761C10.0921 13.5998 12.3856 11.2117 12.3856 7.71941ZM5.96916 5.6908C7.18034 5.6908 7.87593 6.51251 7.87593 7.71941C7.87593 8.95197 7.20606 9.82505 5.91747 9.82505H4.4746V5.6908H5.96916Z" fill="#080B1D"/>
<path d="M13.4058 13.1892C13.4058 17.2464 16.4466 20.2251 20.7501 20.2251C25.0275 20.2251 28.1714 17.195 28.1714 13.1378C28.1714 9.0549 25.1049 6.07617 20.7501 6.07617C16.5755 6.07617 13.4058 9.10627 13.4058 13.1892ZM17.7093 13.1892C17.7093 11.2119 18.9719 9.85096 20.7501 9.85096C22.5023 9.85096 23.868 11.1605 23.868 13.1378C23.868 15.0637 22.528 16.4504 20.7501 16.4504C18.9978 16.4504 17.7093 15.1407 17.7093 13.1892Z" fill="#080B1D"/>
<path d="M34.2847 20.2251C37.3769 20.2251 39.7993 18.5303 39.7993 15.7827C39.7993 10.9038 33.5631 11.8796 33.5631 10.1848C33.5631 9.7739 33.9239 9.51712 34.5423 9.51712C35.599 9.51712 36.3719 10.1591 36.7842 10.57L39.5673 8.38725C38.7683 7.30876 37.2995 6.07617 34.7228 6.07617C31.7852 6.07617 29.5173 7.64257 29.5173 10.2361C29.5173 15.1407 35.7021 14.4731 35.7021 16.0138C35.7021 16.5017 35.3153 16.7585 34.4909 16.7585C33.1252 16.7585 32.2231 16.2192 31.5015 15.5773L29.0794 17.914C29.8781 18.9925 31.7077 20.2251 34.2847 20.2251Z" fill="#080B1D"/>
<path d="M46.0698 3.55957H41.7663V6.4099H40.452V9.8765H41.7663V14.6271C41.7663 18.6329 43.6217 20.0966 46.817 20.0966C47.8994 20.0966 48.4661 19.9425 48.4661 19.9425V16.2705C48.1828 16.2962 47.9765 16.2962 47.7446 16.2962C46.8685 16.2962 46.0698 16.0137 46.0698 14.8325V9.8765H48.363V6.4099H46.0698V3.55957Z" fill="#080B1D"/>
<path d="M63.1431 7.71941C63.1431 4.17575 60.9787 1.91602 57.3194 1.91602H50.8256V19.8911H55.2321V13.5998H57.3451C60.8498 13.5998 63.1431 11.2117 63.1431 7.71941ZM56.7267 5.6908C57.9378 5.6908 58.6337 6.51251 58.6337 7.71941C58.6337 8.95197 57.9636 9.82505 56.6752 9.82505H55.2321V5.6908H56.7267Z" fill="#080B1D"/>
<path d="M69.1626 6.40999H64.8592V19.8913H69.1626V6.40999ZM66.9722 5.58827C68.3379 5.58827 69.3946 4.61247 69.3946 3.27719C69.3946 1.91621 68.3379 0.94043 66.9722 0.94043C65.6065 0.94043 64.5758 1.91621 64.5758 3.27719C64.5758 4.61247 65.6065 5.58827 66.9722 5.58827Z" fill="#080B1D"/>
<path d="M71.6286 19.8913H75.932V1.32568H71.6286V19.8913Z" fill="#080B1D"/>
<path d="M77.7022 13.1892C77.7022 17.2464 80.743 20.2251 85.0464 20.2251C89.3239 20.2251 92.4678 17.195 92.4678 13.1378C92.4678 9.0549 89.4013 6.07617 85.0464 6.07617C80.8718 6.07617 77.7022 9.10627 77.7022 13.1892ZM82.0056 13.1892C82.0056 11.2119 83.2682 9.85096 85.0464 9.85096C86.7987 9.85096 88.1644 11.1605 88.1644 13.1378C88.1644 15.0637 86.8244 16.4504 85.0464 16.4504C83.2939 16.4504 82.0056 15.1407 82.0056 13.1892Z" fill="#080B1D"/>
<path d="M98.9161 3.55957H94.6127V6.4099H93.2984V9.8765H94.6127V14.6271C94.6127 18.6329 96.4681 20.0966 99.6634 20.0966C100.746 20.0966 101.313 19.9425 101.313 19.9425V16.2705C101.029 16.2962 100.823 16.2962 100.591 16.2962C99.7148 16.2962 98.9161 16.0137 98.9161 14.8325V9.8765H101.209V6.4099H98.9161V3.55957Z" fill="#080B1D"/>
</svg>
