<svg width="30" height="24" viewBox="0 0 30 24" fill="none" xmlns="http://www.w3.org/2000/svg">
<path d="M8.31459 12.2635C9.64106 12.2635 10.6757 12.7951 11.4185 13.8585C12.2144 14.8659 12.6123 16.1252 12.6123 17.6363C12.6123 19.2594 12.0817 20.6025 11.0206 21.6659C9.95941 22.6733 8.63294 23.177 7.04117 23.177C5.23718 23.177 3.75155 22.4775 2.58424 21.0782C1.41695 19.6791 0.833313 17.8602 0.833313 15.6215C0.833313 12.4873 1.78837 9.633 3.69848 7.05852C5.6086 4.48404 8.44723 2.30133 12.2144 0.510376V2.60914C9.98593 3.67252 8.07582 5.07169 6.48406 6.80667C4.8923 8.48568 4.09642 10.1647 4.09642 11.8437C4.09642 12.963 4.38824 13.5227 4.97189 13.5227C5.078 13.5227 5.21066 13.4947 5.36983 13.4387C5.52901 13.3268 5.68819 13.243 5.84736 13.1869C6.64323 12.5713 7.46565 12.2635 8.31459 12.2635ZM24.8689 12.2635C26.1953 12.2635 27.2301 12.7951 27.9728 13.8585C28.7687 14.8659 29.1666 16.1252 29.1666 17.6363C29.1666 19.2594 28.6361 20.6025 27.5749 21.6659C26.5137 22.6733 25.1872 23.177 23.5955 23.177C21.7915 23.177 20.3058 22.4775 19.1385 21.0782C17.9713 19.6791 17.3876 17.8602 17.3876 15.6215C17.3876 12.4873 18.3427 9.633 20.2528 7.05852C22.1629 4.48404 25.0015 2.30133 28.7687 0.510376V2.60914C26.5403 3.67252 24.6302 5.07169 23.0384 6.80667C21.4467 8.48568 20.6508 10.1647 20.6508 11.8437C20.6508 12.963 20.9426 13.5227 21.5261 13.5227C21.6322 13.5227 21.765 13.4947 21.9241 13.4387C22.0833 13.3268 22.2425 13.243 22.4016 13.1869C23.1975 12.5713 24.0199 12.2635 24.8689 12.2635Z" fill="#FF6D2C"/>
</svg>
