<svg width="35" height="35" viewBox="0 0 35 35" fill="none" xmlns="http://www.w3.org/2000/svg">
<path fill-rule="evenodd" clip-rule="evenodd" d="M17.5 4.41675C10.2743 4.41675 4.41667 10.2744 4.41667 17.5001C4.41667 24.7258 10.2743 30.5834 17.5 30.5834C24.7257 30.5834 30.5833 24.7258 30.5833 17.5001C30.5833 10.2744 24.7257 4.41675 17.5 4.41675ZM1.41667 17.5001C1.41667 8.6175 8.61743 1.41675 17.5 1.41675C26.3826 1.41675 33.5833 8.6175 33.5833 17.5001C33.5833 26.3827 26.3826 33.5834 17.5 33.5834C8.61743 33.5834 1.41667 26.3827 1.41667 17.5001Z" fill="#6B7280"/>
<path fill-rule="evenodd" clip-rule="evenodd" d="M11.6031 2.79602C12.2739 2.30989 13.2118 2.45959 13.6979 3.13039C16.0167 6.33006 17.8394 9.05772 19.3602 11.8245C22.2877 10.595 24.6978 8.85728 26.7579 6.44821C27.2963 5.81861 28.2432 5.74469 28.8728 6.28311C29.5024 6.82153 29.5763 7.7684 29.0379 8.398C26.6728 11.1636 23.9294 13.1265 20.7305 14.5024C20.8189 14.689 20.9062 14.8764 20.9926 15.0648C21.2065 15.5312 21.4141 16.0031 21.6162 16.4825C24.7069 16.0427 28.2908 16.2623 32.1039 17.2755C32.9046 17.4882 33.3812 18.3097 33.1684 19.1104C32.9557 19.911 32.1342 20.3876 31.3335 20.1749C28.1423 19.3269 25.2212 19.1135 22.7358 19.3677C23.7666 22.2536 24.6845 25.5058 25.6516 29.4992C25.8466 30.3044 25.3519 31.1151 24.5468 31.3101C23.7416 31.5051 22.9309 31.0105 22.7359 30.2053C21.7321 26.0605 20.7988 22.7974 19.7564 19.9504C19.5611 20.0096 19.3702 20.0723 19.184 20.1384C15.7991 21.3457 12.4836 23.9274 9.05876 28.8039C8.58263 29.4819 7.64708 29.6455 6.96915 29.1694C6.29121 28.6932 6.12761 27.7577 6.60373 27.0798C10.266 21.8651 14.0377 18.7885 18.1774 17.3123L18.1795 17.3116C18.3314 17.2577 18.4853 17.2057 18.6411 17.1558C18.518 16.8728 18.393 16.5928 18.2657 16.3153C18.1457 16.0537 18.0237 15.794 17.8994 15.5357C13.7634 16.8024 8.94645 17.3192 3.31713 17.4539C2.48894 17.4737 1.80149 16.8184 1.78167 15.9902C1.76185 15.162 2.41717 14.4746 3.24536 14.4548C8.51704 14.3286 12.8531 13.8605 16.4844 12.8259C15.0966 10.36 13.4219 7.8619 11.2687 4.89083C10.7826 4.22003 10.9323 3.28216 11.6031 2.79602Z" fill="#6B7280"/>
</svg>
