<svg width="163" height="31" viewBox="0 0 163 31" fill="none" xmlns="http://www.w3.org/2000/svg">
<g clip-path="url(#clip0_0_382)">
<path d="M73.3856 12.7194C73.3856 9.17575 71.2209 6.91602 67.5619 6.91602H61.0681V24.8911H65.4746V18.5998H67.5876C71.0921 18.5998 73.3856 16.2117 73.3856 12.7194ZM66.9692 10.6908C68.1803 10.6908 68.8759 11.5125 68.8759 12.7194C68.8759 13.952 68.2061 14.8251 66.9175 14.8251H65.4746V10.6908H66.9692Z" fill="#080B1D"/>
<path d="M74.4058 18.1892C74.4058 22.2464 77.4466 25.2251 81.7501 25.2251C86.0275 25.2251 89.1714 22.195 89.1714 18.1378C89.1714 14.0549 86.1049 11.0762 81.7501 11.0762C77.5755 11.0762 74.4058 14.1063 74.4058 18.1892ZM78.7093 18.1892C78.7093 16.2119 79.9719 14.851 81.7501 14.851C83.5023 14.851 84.868 16.1605 84.868 18.1378C84.868 20.0637 83.528 21.4504 81.7501 21.4504C79.9978 21.4504 78.7093 20.1407 78.7093 18.1892Z" fill="#080B1D"/>
<path d="M95.2847 25.2251C98.3769 25.2251 100.799 23.5303 100.799 20.7827C100.799 15.9038 94.5631 16.8796 94.5631 15.1848C94.5631 14.7739 94.9239 14.5171 95.5423 14.5171C96.599 14.5171 97.3719 15.1591 97.7842 15.57L100.567 13.3873C99.7683 12.3088 98.2995 11.0762 95.7228 11.0762C92.7852 11.0762 90.5173 12.6426 90.5173 15.2361C90.5173 20.1407 96.7021 19.4731 96.7021 21.0138C96.7021 21.5017 96.3153 21.7585 95.4909 21.7585C94.1252 21.7585 93.2231 21.2192 92.5015 20.5773L90.0794 22.914C90.8781 23.9925 92.7077 25.2251 95.2847 25.2251Z" fill="#080B1D"/>
<path d="M107.07 8.55957H102.766V11.4099H101.452V14.8765H102.766V19.6271C102.766 23.6329 104.622 25.0966 107.817 25.0966C108.899 25.0966 109.466 24.9425 109.466 24.9425V21.2705C109.183 21.2962 108.977 21.2962 108.745 21.2962C107.868 21.2962 107.07 21.0137 107.07 19.8325V14.8765H109.363V11.4099H107.07V8.55957Z" fill="#080B1D"/>
<path d="M124.143 12.7194C124.143 9.17575 121.979 6.91602 118.319 6.91602H111.826V24.8911H116.232V18.5998H118.345C121.85 18.5998 124.143 16.2117 124.143 12.7194ZM117.727 10.6908C118.938 10.6908 119.634 11.5125 119.634 12.7194C119.634 13.952 118.964 14.8251 117.675 14.8251H116.232V10.6908H117.727Z" fill="#080B1D"/>
<path d="M130.163 11.41H125.859V24.8913H130.163V11.41ZM127.972 10.5883C129.338 10.5883 130.395 9.61247 130.395 8.27719C130.395 6.91621 129.338 5.94043 127.972 5.94043C126.606 5.94043 125.576 6.91621 125.576 8.27719C125.576 9.61247 126.606 10.5883 127.972 10.5883Z" fill="#080B1D"/>
<path d="M132.629 24.8913H136.932V6.32568H132.629V24.8913Z" fill="#080B1D"/>
<path d="M138.702 18.1892C138.702 22.2464 141.743 25.2251 146.046 25.2251C150.324 25.2251 153.468 22.195 153.468 18.1378C153.468 14.0549 150.401 11.0762 146.046 11.0762C141.872 11.0762 138.702 14.1063 138.702 18.1892ZM143.006 18.1892C143.006 16.2119 144.268 14.851 146.046 14.851C147.799 14.851 149.164 16.1605 149.164 18.1378C149.164 20.0637 147.824 21.4504 146.046 21.4504C144.294 21.4504 143.006 20.1407 143.006 18.1892Z" fill="#080B1D"/>
<path d="M159.916 8.55957H155.613V11.4099H154.298V14.8765H155.613V19.6271C155.613 23.6329 157.468 25.0966 160.663 25.0966C161.746 25.0966 162.313 24.9425 162.313 24.9425V21.2705C162.029 21.2962 161.823 21.2962 161.591 21.2962C160.715 21.2962 159.916 21.0137 159.916 19.8325V14.8765H162.209V11.4099H159.916V8.55957Z" fill="#080B1D"/>
<path fill-rule="evenodd" clip-rule="evenodd" d="M1.18879 2.12154C0.72817 1.60334 1.09603 0.78418 1.78935 0.78418H45.9583C49.8275 0.78418 52.9643 3.9208 52.9643 7.79002V23.4831C52.9643 27.3522 49.8275 30.4889 45.9583 30.4889H24.2626C23.268 30.4889 22.3209 30.0636 21.6602 29.3203L19.404 26.7821C18.9434 26.2639 19.3112 25.4448 20.0046 25.4448H45.9583C47.0417 25.4448 47.92 24.5665 47.92 23.4831V7.79002C47.92 6.70666 47.0417 5.8284 45.9583 5.8284H6.04739C5.05282 5.8284 4.10572 5.40307 3.44496 4.65972L1.18879 2.12154Z" fill="#02A99B"/>
<path fill-rule="evenodd" clip-rule="evenodd" d="M20.325 0.583496L33.2427 14.6263C33.5735 14.9861 34.1405 14.9887 34.4748 14.632L45.842 2.5008L49.5227 5.9498L38.1557 18.081C35.8159 20.5781 31.847 20.5598 29.5301 18.0413L16.6126 3.99846L20.325 0.583496Z" fill="#02A99B"/>
<path fill-rule="evenodd" clip-rule="evenodd" d="M11.0092 15.0151C10.5454 14.4977 10.9126 13.6753 11.6075 13.6753H19.6784C20.418 13.6753 21.0176 14.2749 21.0176 15.0145V17.3803C21.0176 18.1199 20.418 18.7195 19.6784 18.7195H15.2865C14.6775 18.7195 14.0973 18.4604 13.6909 18.0069L11.0092 15.0151Z" fill="#02A99B"/>
</g>
<defs>
<clipPath id="clip0_0_382">
<rect width="162.312" height="29.9984" fill="white" transform="translate(0 0.500977)"/>
</clipPath>
</defs>
</svg>
