<svg width="48" height="35" viewBox="0 0 48 35" fill="none" xmlns="http://www.w3.org/2000/svg">
<rect width="48" height="34" transform="translate(0 0.84375)" fill="#FDF3EA"/>
<path d="M17.3146 18.2635C18.6411 18.2635 19.6757 18.7951 20.4185 19.8585C21.2144 20.8659 21.6123 22.1252 21.6123 23.6363C21.6123 25.2594 21.0817 26.6025 20.0206 27.6659C18.9594 28.6733 17.6329 29.177 16.0412 29.177C14.2372 29.177 12.7515 28.4775 11.5842 27.0782C10.417 25.6791 9.83331 23.8602 9.83331 21.6215C9.83331 18.4873 10.7884 15.633 12.6985 13.0585C14.6086 10.484 17.4472 8.30133 21.2144 6.51038V8.60914C18.9859 9.67252 17.0758 11.0717 15.4841 12.8067C13.8923 14.4857 13.0964 16.1647 13.0964 17.8437C13.0964 18.963 13.3882 19.5227 13.9719 19.5227C14.078 19.5227 14.2107 19.4947 14.3698 19.4387C14.529 19.3268 14.6882 19.243 14.8474 19.1869C15.6432 18.5713 16.4657 18.2635 17.3146 18.2635ZM33.8689 18.2635C35.1953 18.2635 36.2301 18.7951 36.9728 19.8585C37.7687 20.8659 38.1666 22.1252 38.1666 23.6363C38.1666 25.2594 37.6361 26.6025 36.5749 27.6659C35.5137 28.6733 34.1872 29.177 32.5955 29.177C30.7915 29.177 29.3058 28.4775 28.1385 27.0782C26.9713 25.6791 26.3876 23.8602 26.3876 21.6215C26.3876 18.4873 27.3427 15.633 29.2528 13.0585C31.1629 10.484 34.0015 8.30133 37.7687 6.51038V8.60914C35.5403 9.67252 33.6302 11.0717 32.0384 12.8067C30.4467 14.4857 29.6508 16.1647 29.6508 17.8437C29.6508 18.963 29.9426 19.5227 30.5261 19.5227C30.6322 19.5227 30.765 19.4947 30.9241 19.4387C31.0833 19.3268 31.2425 19.243 31.4016 19.1869C32.1975 18.5713 33.0199 18.2635 33.8689 18.2635Z" fill="#FF6D2C"/>
</svg>
