<svg width="99" height="35" viewBox="0 0 99 35" fill="none" xmlns="http://www.w3.org/2000/svg">
<rect width="99" height="35" rx="17.5" fill="#080809"/>
<g clip-path="url(#clip0_108_77)">
<path d="M24.5075 17.0018L14.4639 26.673C13.9936 26.3516 13.7144 25.817 13.7193 25.2473V8.75626C13.7144 8.18663 13.9936 7.65199 14.4639 7.33057L24.5075 17.0018Z" fill="#2196F3"/>
<path d="M28.0217 13.6236L24.5074 17.0018L14.4639 7.33053C14.5017 7.3012 14.5411 7.27392 14.5819 7.2488C15.1127 6.92708 15.7757 6.9167 16.3164 7.22156L28.0217 13.6236Z" fill="#4CAF50"/>
<path d="M32.2806 17.0017C32.2872 17.6447 31.9377 18.2387 31.3725 18.5454L28.0217 20.3798L24.5073 17.0017L28.0217 13.6235L31.3725 15.4579C31.9377 15.7646 32.2872 16.3586 32.2806 17.0017Z" fill="#F0BB1F"/>
<path d="M28.0217 20.3801L16.3164 26.7822C15.7745 27.0823 15.114 27.0719 14.5819 26.7549C14.5411 26.7298 14.5017 26.7025 14.4639 26.6732L24.5074 17.002L28.0217 20.3801Z" fill="#F15A2B"/>
</g>
<path d="M44.024 11.8801H41.216V13.0001H42.712C42.512 13.5361 42.024 13.8641 41.28 13.8641C40.192 13.8641 39.52 13.1681 39.52 12.2161C39.52 11.2321 40.224 10.5361 41.168 10.5361C41.8 10.5361 42.304 10.8241 42.536 11.1921L43.624 10.5681C43.152 9.81609 42.248 9.28809 41.176 9.28809C39.528 9.28809 38.24 10.5841 38.24 12.2081C38.24 13.8161 39.504 15.1121 41.264 15.1121C42.832 15.1121 44.024 14.0721 44.024 12.3601V11.8801Z" fill="white"/>
<path d="M45.6256 13.7681V12.7761H47.6256V11.5601H45.6256V10.6321H47.8256V9.40009H44.3456V15.0001H47.8656V13.7681H45.6256Z" fill="white"/>
<path d="M51.9478 9.40009H47.7878V10.6321H49.2278V15.0001H50.5078V10.6321H51.9478V9.40009Z" fill="white"/>
<path d="M53.7081 9.40009V15.0001H54.9881V9.40009H53.7081Z" fill="white"/>
<path d="M59.3103 9.40009H55.1503V10.6321H56.5903V15.0001H57.8703V10.6321H59.3103V9.40009Z" fill="white"/>
<path d="M63.7426 15.1121C65.3506 15.1121 66.6546 13.8481 66.6546 12.2001C66.6546 10.5521 65.3506 9.28809 63.7426 9.28809C62.1346 9.28809 60.8306 10.5521 60.8306 12.2001C60.8306 13.8481 62.1346 15.1121 63.7426 15.1121ZM63.7426 13.8641C62.8306 13.8641 62.1106 13.2001 62.1106 12.2001C62.1106 11.2001 62.8306 10.5361 63.7426 10.5361C64.6546 10.5361 65.3746 11.2001 65.3746 12.2001C65.3746 13.2001 64.6546 13.8641 63.7426 13.8641Z" fill="white"/>
<path d="M70.0953 9.40009V12.4401L67.9353 9.40009H66.9753V15.0001H68.2553V11.9601L70.4153 15.0001H71.3753V9.40009H70.0953Z" fill="white"/>
<path d="M44.024 21.3921V21.6081C44.024 22.3068 43.776 22.8961 43.28 23.3761C42.784 23.8508 42.1307 24.0881 41.32 24.0881C40.4667 24.0881 39.7627 23.8108 39.208 23.2561C38.6533 22.6961 38.376 22.0108 38.376 21.2001C38.376 20.3894 38.6507 19.7068 39.2 19.1521C39.7493 18.5921 40.4453 18.3121 41.288 18.3121C41.8 18.3121 42.2693 18.4348 42.696 18.6801C43.128 18.9254 43.4613 19.2534 43.696 19.6641L43.32 19.8881C43.1333 19.5361 42.856 19.2534 42.488 19.0401C42.1253 18.8268 41.7253 18.7201 41.288 18.7201C40.5627 18.7201 39.9653 18.9601 39.496 19.4401C39.032 19.9148 38.8 20.5014 38.8 21.2001C38.8 21.8988 39.0347 22.4881 39.504 22.9681C39.9733 23.4428 40.5787 23.6801 41.32 23.6801C41.976 23.6801 42.5067 23.5014 42.912 23.1441C43.3173 22.7868 43.544 22.3361 43.592 21.7921H41.216V21.3921H44.024Z" fill="white"/>
<path d="M49.7026 23.2481C49.1426 23.8081 48.4599 24.0881 47.6546 24.0881C46.8493 24.0881 46.1666 23.8081 45.6066 23.2481C45.0466 22.6828 44.7666 22.0001 44.7666 21.2001C44.7666 20.4001 45.0466 19.7201 45.6066 19.1601C46.1666 18.5948 46.8493 18.3121 47.6546 18.3121C48.4599 18.3121 49.1426 18.5948 49.7026 19.1601C50.2626 19.7201 50.5426 20.4001 50.5426 21.2001C50.5426 22.0001 50.2626 22.6828 49.7026 23.2481ZM45.9026 22.9601C46.3826 23.4401 46.9666 23.6801 47.6546 23.6801C48.3426 23.6801 48.9239 23.4401 49.3986 22.9601C49.8786 22.4748 50.1186 21.8881 50.1186 21.2001C50.1186 20.5121 49.8786 19.9281 49.3986 19.4481C48.9239 18.9628 48.3426 18.7201 47.6546 18.7201C46.9666 18.7201 46.3826 18.9628 45.9026 19.4481C45.4279 19.9281 45.1906 20.5121 45.1906 21.2001C45.1906 21.8881 45.4279 22.4748 45.9026 22.9601Z" fill="white"/>
<path d="M56.2339 23.2481C55.6739 23.8081 54.9912 24.0881 54.1859 24.0881C53.3805 24.0881 52.6979 23.8081 52.1379 23.2481C51.5779 22.6828 51.2979 22.0001 51.2979 21.2001C51.2979 20.4001 51.5779 19.7201 52.1379 19.1601C52.6979 18.5948 53.3805 18.3121 54.1859 18.3121C54.9912 18.3121 55.6739 18.5948 56.2339 19.1601C56.7939 19.7201 57.0739 20.4001 57.0739 21.2001C57.0739 22.0001 56.7939 22.6828 56.2339 23.2481ZM52.4339 22.9601C52.9139 23.4401 53.4979 23.6801 54.1859 23.6801C54.8739 23.6801 55.4552 23.4401 55.9299 22.9601C56.4099 22.4748 56.6499 21.8881 56.6499 21.2001C56.6499 20.5121 56.4099 19.9281 55.9299 19.4481C55.4552 18.9628 54.8739 18.7201 54.1859 18.7201C53.4979 18.7201 52.9139 18.9628 52.4339 19.4481C51.9592 19.9281 51.7219 20.5121 51.7219 21.2001C51.7219 21.8881 51.9592 22.4748 52.4339 22.9601Z" fill="white"/>
<path d="M63.4771 21.3921V21.6081C63.4771 22.3068 63.2291 22.8961 62.7331 23.3761C62.2371 23.8508 61.5838 24.0881 60.7731 24.0881C59.9198 24.0881 59.2158 23.8108 58.6611 23.2561C58.1064 22.6961 57.8291 22.0108 57.8291 21.2001C57.8291 20.3894 58.1038 19.7068 58.6531 19.1521C59.2024 18.5921 59.8984 18.3121 60.7411 18.3121C61.2531 18.3121 61.7224 18.4348 62.1491 18.6801C62.5811 18.9254 62.9144 19.2534 63.1491 19.6641L62.7731 19.8881C62.5864 19.5361 62.3091 19.2534 61.9411 19.0401C61.5784 18.8268 61.1784 18.7201 60.7411 18.7201C60.0158 18.7201 59.4184 18.9601 58.9491 19.4401C58.4851 19.9148 58.2531 20.5014 58.2531 21.2001C58.2531 21.8988 58.4878 22.4881 58.9571 22.9681C59.4264 23.4428 60.0318 23.6801 60.7731 23.6801C61.4291 23.6801 61.9598 23.5014 62.3651 23.1441C62.7704 22.7868 62.9971 22.3361 63.0451 21.7921H60.6691V21.3921H63.4771Z" fill="white"/>
<path d="M64.9637 23.6001H67.6037V24.0001H64.5397V18.4001H64.9637V23.6001Z" fill="white"/>
<path d="M68.9091 23.6001H71.7091V24.0001H68.4851V18.4001H71.6691V18.8001H68.9091V20.9761H71.4691V21.3761H68.9091V23.6001Z" fill="white"/>
<path d="M76.7875 18.4001C77.2888 18.4001 77.7048 18.5654 78.0355 18.8961C78.3662 19.2268 78.5315 19.6401 78.5315 20.1361C78.5315 20.6321 78.3662 21.0454 78.0355 21.3761C77.7048 21.7014 77.2888 21.8641 76.7875 21.8641H75.3075V24.0001H74.8835V18.4001H76.7875ZM76.7875 21.4641C77.1715 21.4641 77.4862 21.3388 77.7315 21.0881C77.9822 20.8374 78.1075 20.5201 78.1075 20.1361C78.1075 19.7468 77.9822 19.4268 77.7315 19.1761C77.4862 18.9254 77.1715 18.8001 76.7875 18.8001H75.3075V21.4641H76.7875Z" fill="white"/>
<path d="M80.0028 23.6001H82.6428V24.0001H79.5788V18.4001H80.0028V23.6001Z" fill="white"/>
<path d="M87.4484 24.0001L86.9044 22.5761H84.0964L83.5524 24.0001H83.1044L85.2804 18.4001H85.7284L87.8964 24.0001H87.4484ZM84.2564 22.1761H86.7524L85.5044 18.9201L84.2564 22.1761Z" fill="white"/>
<path d="M91.8809 18.4001L89.8409 21.6961V24.0001H89.4169V21.6961L87.3769 18.4001H87.8569L89.6329 21.2881L91.4009 18.4001H91.8809Z" fill="white"/>
<defs>
<clipPath id="clip0_108_77">
<rect width="20" height="20" fill="white" transform="translate(13 7)"/>
</clipPath>
</defs>
</svg>
