<svg width="43" height="31" viewBox="0 0 43 31" fill="none" xmlns="http://www.w3.org/2000/svg">
<path d="M29.3281 12.8086C28.8008 12.8086 28.2148 13.2188 28.2148 14.1562H30.3828C30.3828 13.2188 29.8555 12.8086 29.3281 12.8086ZM22.4727 12.9844C21.9453 12.9844 21.6523 13.1602 21.4766 13.3945V16.5C21.6523 16.6758 21.9453 16.8516 22.4727 16.8516C23.2344 16.8516 23.7031 16.0312 23.7031 14.918C23.7031 13.8047 23.1758 12.9844 22.4727 12.9844ZM31.4375 1.73438H3.3125C1.73047 1.73438 0.5 3.02344 0.5 4.54688V25.1719C0.5 26.7539 1.73047 27.9844 3.3125 27.9844H31.4375C32.9609 27.9844 34.25 26.7539 34.25 25.1719V4.54688C34.25 3.02344 32.9609 1.73438 31.4375 1.73438ZM7.64844 16.3828C7.64844 17.8477 6.41797 18.7266 4.71875 18.7266C4.01562 18.7266 3.19531 18.5508 2.43359 18.2578V16.2656C3.13672 16.6172 4.01562 16.9102 4.71875 16.9102C5.1875 16.9102 5.53906 16.793 5.53906 16.3828C5.53906 15.3867 2.375 15.7969 2.375 13.5117C2.375 11.9883 3.48828 11.1094 5.1875 11.1094C5.83203 11.1094 6.53516 11.2266 7.23828 11.5195V13.4531C6.59375 13.1016 5.77344 12.9258 5.1875 12.9258C4.71875 12.9258 4.42578 13.043 4.42578 13.3945C4.42578 14.332 7.64844 13.8633 7.64844 16.3828ZM11.6914 13.043H10.1094V15.9727C10.1094 17.2031 11.3984 16.8516 11.6914 16.7344V18.4336C11.3984 18.6094 10.8711 18.7266 10.2266 18.7266C8.99609 18.7266 8.05859 17.7891 8.05859 16.5586V9.87891L10.1094 9.46875V11.2852H11.6914V13.043ZM16.0273 13.1602C15.7344 13.1016 14.9141 12.9844 14.3867 13.6289V18.5508H12.3359V11.2852H14.1523L14.2695 11.8711C14.7383 10.9922 15.7344 11.168 15.9688 11.2852H16.0273V13.1602ZM18.6055 18.5508H16.4961V11.2852H18.6055V18.5508ZM18.6055 10.1719L16.4961 10.6406V8.94141L18.6055 8.47266V10.1719ZM22.9414 18.7266C22.1797 18.7266 21.7695 18.375 21.4766 18.1992V20.543L19.3672 20.9531V11.2852H21.1836L21.3008 11.7539C21.5938 11.5195 22.1211 11.1094 22.9414 11.1094C24.4062 11.1094 25.7539 12.457 25.7539 14.8594C25.7539 17.4961 24.4062 18.7266 22.9414 18.7266ZM32.3164 15.6797H28.2734C28.332 16.6758 29.0352 16.9688 29.8555 16.9688C30.6758 16.9688 31.3203 16.793 31.9062 16.5V18.1406C31.3203 18.4922 30.6172 18.7266 29.6211 18.7266C27.5703 18.7266 26.1641 17.4375 26.1641 14.918C26.1641 12.8086 27.3359 11.1094 29.3281 11.1094C31.3203 11.1094 32.375 12.8086 32.375 14.918C32.375 15.1523 32.3164 15.5625 32.3164 15.6797Z" fill="white"/>
</svg>
