<?xml version="1.0" encoding="UTF-8"?>
<!DOCTYPE svg PUBLIC "-//W3C//DTD SVG 1.1//EN" "http://www.w3.org/Graphics/SVG/1.1/DTD/svg11.dtd">
<svg xmlns="http://www.w3.org/2000/svg" version="1.1" width="128px" height="128px" style="shape-rendering:geometricPrecision; text-rendering:geometricPrecision; image-rendering:optimizeQuality; fill-rule:evenodd; clip-rule:evenodd" xmlns:xlink="http://www.w3.org/1999/xlink">
<g><path style="opacity:1" fill="#3a5896" d="M 59.5,-0.5 C 64.8333,-0.5 70.1667,-0.5 75.5,-0.5C 86.0896,1.69397 95.4229,6.36063 103.5,13.5C 104.787,15.6365 105.621,17.9699 106,20.5C 108.715,21.0691 111.215,22.0691 113.5,23.5C 120.302,31.7698 124.968,41.1031 127.5,51.5C 127.5,59.5 127.5,67.5 127.5,75.5C 125.863,81.5702 123.696,87.5702 121,93.5C 119.021,97.3003 116.521,100.634 113.5,103.5C 112.18,104.942 110.514,105.608 108.5,105.5C 108.5,106.5 108.5,107.5 108.5,108.5C 107.5,108.5 106.5,108.5 105.5,108.5C 105.608,110.514 104.942,112.18 103.5,113.5C 94.9892,120.589 85.3225,125.256 74.5,127.5C 67.1667,127.5 59.8333,127.5 52.5,127.5C 46.0662,126.354 40.0662,124.021 34.5,120.5C 34.1193,119.069 33.1193,118.236 31.5,118C 32.8333,116.667 32.8333,115.333 31.5,114C 28.6335,113.971 26.1335,113.138 24,111.5C 23.6667,111.833 23.3333,112.167 23,112.5C 21.6095,107.609 18.4428,104.609 13.5,103.5C 6.69842,95.2302 2.03176,85.8969 -0.5,75.5C -0.5,67.5 -0.5,59.5 -0.5,51.5C 1.13742,45.4298 3.30408,39.4298 6,33.5C 7.97889,29.6997 10.4789,26.3664 13.5,23.5C 17.1667,20.5 20.5,17.1667 23.5,13.5C 23.5,12.8333 23.8333,12.5 24.5,12.5C 25.6948,12.3225 26.8615,11.9891 28,11.5C 30.8256,13.8117 33.6589,13.6451 36.5,11C 35.0545,8.50678 35.7211,6.67345 38.5,5.5C 41.2761,7.12985 44.2761,7.79651 47.5,7.5C 47.7733,5.54899 47.1066,4.04899 45.5,3C 50.4647,2.43161 55.1314,1.26495 59.5,-0.5 Z"/></g>
<g><path style="opacity:1" fill="#374f85" d="M 51.5,-0.5 C 54.1667,-0.5 56.8333,-0.5 59.5,-0.5C 55.1314,1.26495 50.4647,2.43161 45.5,3C 47.1066,4.04899 47.7733,5.54899 47.5,7.5C 44.2761,7.79651 41.2761,7.12985 38.5,5.5C 35.7211,6.67345 35.0545,8.50678 36.5,11C 33.6589,13.6451 30.8256,13.8117 28,11.5C 26.8615,11.9891 25.6948,12.3225 24.5,12.5C 32.5742,6.29663 41.5742,1.96329 51.5,-0.5 Z"/></g>
<g><path style="opacity:0.859" fill="#1f2749" d="M 23.5,13.5 C 20.5,17.1667 17.1667,20.5 13.5,23.5C 15.8333,19.1667 19.1667,15.8333 23.5,13.5 Z"/></g>
<g><path style="opacity:1" fill="#2f436b" d="M 103.5,13.5 C 107.833,15.8333 111.167,19.1667 113.5,23.5C 111.215,22.0691 108.715,21.0691 106,20.5C 105.621,17.9699 104.787,15.6365 103.5,13.5 Z"/></g>
<g><path style="opacity:1" fill="#f9fcfd" d="M 81.5,43.5 C 78.1501,43.335 74.8168,43.5017 71.5,44C 70.5442,47.3936 70.2108,50.8936 70.5,54.5C 73.5,54.5 76.5,54.5 79.5,54.5C 79.8333,54.5 80.1667,54.5 80.5,54.5C 80.6054,58.5483 80.2721,62.5483 79.5,66.5C 76.5,66.5 73.5,66.5 70.5,66.5C 69.5052,77.6544 69.1719,88.9877 69.5,100.5C 65.1667,100.5 60.8333,100.5 56.5,100.5C 56.8281,88.9877 56.4948,77.6544 55.5,66.5C 52.9407,66.8016 50.6074,66.4682 48.5,65.5C 48.5,61.8333 48.5,58.1667 48.5,54.5C 50.8333,54.5 53.1667,54.5 55.5,54.5C 54.8565,48.1598 55.8565,42.1598 58.5,36.5C 60.2528,34.7775 62.2528,33.2775 64.5,32C 70.1569,31.5006 75.8236,31.3339 81.5,31.5C 81.5,35.5 81.5,39.5 81.5,43.5 Z"/></g>
<g><path style="opacity:1" fill="#405e90" d="M 81.5,43.5 C 81.822,45.7224 81.1554,47.5557 79.5,49C 70.1894,50.1551 70.1894,50.9884 79.5,51.5C 79.5,52.5 79.5,53.5 79.5,54.5C 76.5,54.5 73.5,54.5 70.5,54.5C 70.2108,50.8936 70.5442,47.3936 71.5,44C 74.8168,43.5017 78.1501,43.335 81.5,43.5 Z"/></g>
<g><path style="opacity:1" fill="#4c648c" d="M 58.5,36.5 C 55.8565,42.1598 54.8565,48.1598 55.5,54.5C 53.1667,54.5 50.8333,54.5 48.5,54.5C 48.5,58.1667 48.5,61.8333 48.5,65.5C 47.5166,61.7016 47.1832,57.7016 47.5,53.5C 49.8333,53.5 52.1667,53.5 54.5,53.5C 54.3341,48.4889 54.5007,43.4889 55,38.5C 55.7096,37.0267 56.8762,36.3601 58.5,36.5 Z"/></g>
<g><path style="opacity:1" fill="#bdcbe3" d="M 55.5,66.5 C 56.4948,77.6544 56.8281,88.9877 56.5,100.5C 60.8333,100.5 65.1667,100.5 69.5,100.5C 69.1719,88.9877 69.5052,77.6544 70.5,66.5C 70.5,77.5 70.5,88.5 70.5,99.5C 65.9443,101.442 60.9443,102.108 55.5,101.5C 55.5,89.8333 55.5,78.1667 55.5,66.5 Z"/></g>
<g><path style="opacity:1" fill="#3f5986" d="M 80.5,54.5 C 82.0252,57.7495 83.0252,61.2495 83.5,65C 83.0426,65.414 82.7093,65.914 82.5,66.5C 78.8927,67.4892 75.226,67.8226 71.5,67.5C 71.8278,78.3464 71.4944,89.0131 70.5,99.5C 70.5,88.5 70.5,77.5 70.5,66.5C 73.5,66.5 76.5,66.5 79.5,66.5C 80.2721,62.5483 80.6054,58.5483 80.5,54.5 Z"/></g>
<g><path style="opacity:1" fill="#263654" d="M 113.5,103.5 C 111.167,107.833 107.833,111.167 103.5,113.5C 104.942,112.18 105.608,110.514 105.5,108.5C 106.5,108.5 107.5,108.5 108.5,108.5C 108.5,107.5 108.5,106.5 108.5,105.5C 110.514,105.608 112.18,104.942 113.5,103.5 Z"/></g>
<g><path style="opacity:1" fill="#344a78" d="M 13.5,103.5 C 18.4428,104.609 21.6095,107.609 23,112.5C 23.3333,112.167 23.6667,111.833 24,111.5C 26.1335,113.138 28.6335,113.971 31.5,114C 32.8333,115.333 32.8333,116.667 31.5,118C 33.1193,118.236 34.1193,119.069 34.5,120.5C 25.7326,116.958 18.7326,111.291 13.5,103.5 Z"/></g>
</svg>
