<?xml version="1.0" encoding="UTF-8"?>
<!DOCTYPE svg PUBLIC "-//W3C//DTD SVG 1.1//EN" "http://www.w3.org/Graphics/SVG/1.1/DTD/svg11.dtd">
<svg xmlns="http://www.w3.org/2000/svg" version="1.1" width="128px" height="128px" style="shape-rendering:geometricPrecision; text-rendering:geometricPrecision; image-rendering:optimizeQuality; fill-rule:evenodd; clip-rule:evenodd" xmlns:xlink="http://www.w3.org/1999/xlink">
<g><path style="opacity:1" fill="#79a3d8" d="M 51.5,-0.5 C 59.5,-0.5 67.5,-0.5 75.5,-0.5C 77.0276,0.309209 78.6943,0.975875 80.5,1.5C 82.5573,3.85602 85.224,4.85602 88.5,4.5C 94.4103,6.45562 99.7436,9.45562 104.5,13.5C 105.217,15.9366 106.217,18.2699 107.5,20.5C 108.527,21.7914 109.527,21.7914 110.5,20.5C 111.167,21.8333 112.167,22.8333 113.5,23.5C 113.561,27.0709 115.227,29.4042 118.5,30.5C 120.341,32.8485 121.674,35.5152 122.5,38.5C 122.145,42.0774 123.145,45.0774 125.5,47.5C 126.167,48.8333 126.833,50.1667 127.5,51.5C 127.5,54.8333 127.5,58.1667 127.5,61.5C 119.95,54.7842 112.95,47.6176 106.5,40C 105.255,39.2086 103.922,38.7086 102.5,38.5C 102.573,36.9731 101.906,35.9731 100.5,35.5C 100.144,33.8102 99.1436,32.8102 97.5,32.5C 73.9715,40.9284 50.6382,49.9284 27.5,59.5C 26.2889,60.7202 26.2889,61.8869 27.5,63C 33.5158,65.169 39.5158,67.3356 45.5,69.5C 47.9634,76.0572 50.1301,82.7238 52,89.5C 52.3826,90.056 52.8826,90.3893 53.5,90.5C 54.1667,90.8333 54.8333,91.1667 55.5,91.5C 64.9336,103.03 75.2669,113.696 86.5,123.5C 82.5914,125.143 78.5914,126.476 74.5,127.5C 70.1667,127.5 65.8333,127.5 61.5,127.5C 56.223,125.127 50.5563,124.127 44.5,124.5C 44.8841,122.335 44.2174,120.668 42.5,119.5C 41.4937,119.938 41.4937,120.604 42.5,121.5C 41.3112,122.429 39.9778,122.762 38.5,122.5C 35.5152,121.674 32.8485,120.341 30.5,118.5C 29.4042,115.227 27.0709,113.561 23.5,113.5C 22.7377,111.738 21.4044,110.738 19.5,110.5C 12.5253,104.562 7.52528,97.229 4.5,88.5C 4.85602,85.224 3.85602,82.5573 1.5,80.5C 0.975875,78.6943 0.309209,77.0276 -0.5,75.5C -0.5,67.5 -0.5,59.5 -0.5,51.5C 2.14994,39.2057 7.8166,28.5391 16.5,19.5C 17.675,19.719 18.675,19.3857 19.5,18.5C 21.5311,16.6899 23.1978,14.6899 24.5,12.5C 32.5742,6.29663 41.5742,1.96329 51.5,-0.5 Z"/></g>
<g><path style="opacity:1" fill="#48698a" d="M 80.5,1.5 C 83.5418,1.73292 86.2084,2.73292 88.5,4.5C 85.224,4.85602 82.5573,3.85602 80.5,1.5 Z"/></g>
<g><path style="opacity:0.804" fill="#4a5d81" d="M 24.5,12.5 C 23.1978,14.6899 21.5311,16.6899 19.5,18.5C 18.675,19.3857 17.675,19.719 16.5,19.5C 18.5491,16.4503 21.2157,14.117 24.5,12.5 Z"/></g>
<g><path style="opacity:1" fill="#6281a4" d="M 104.5,13.5 C 106.833,15.1667 108.833,17.1667 110.5,19.5C 110.5,19.8333 110.5,20.1667 110.5,20.5C 109.527,21.7914 108.527,21.7914 107.5,20.5C 106.217,18.2699 105.217,15.9366 104.5,13.5 Z"/></g>
<g><path style="opacity:0.745" fill="#2e3c4f" d="M 110.5,19.5 C 112.262,20.2623 113.262,21.5956 113.5,23.5C 112.167,22.8333 111.167,21.8333 110.5,20.5C 110.5,20.1667 110.5,19.8333 110.5,19.5 Z"/></g>
<g><path style="opacity:1" fill="#567297" d="M 113.5,23.5 C 115.9,25.2964 117.567,27.6298 118.5,30.5C 115.227,29.4042 113.561,27.0709 113.5,23.5 Z"/></g>
<g><path style="opacity:1" fill="#d0d1d3" d="M 97.5,35.5 C 95.5723,41.9921 94.5723,48.6587 94.5,55.5C 93.5,55.5 92.5,55.5 91.5,55.5C 90.5873,60.7402 89.5873,60.7402 88.5,55.5C 87.343,58.7844 87.1764,62.1177 88,65.5C 89.6591,66.8168 90.8257,68.4835 91.5,70.5C 89.778,77.0548 88.6113,83.7215 88,90.5C 84.9567,92.9287 83.4567,91.9287 83.5,87.5C 78.9246,88.5451 76.258,86.5451 75.5,81.5C 71.3877,82.3816 67.7211,82.3816 64.5,81.5C 64.5,81.8333 64.5,82.1667 64.5,82.5C 61.7194,85.7365 58.7194,88.7365 55.5,91.5C 54.8333,91.1667 54.1667,90.8333 53.5,90.5C 53.5,89.5 53.5,88.5 53.5,87.5C 55.0772,82.7661 55.9106,77.7661 56,72.5C 67.0777,63.2472 77.5777,53.5805 87.5,43.5C 90.5393,40.4602 93.8726,37.7935 97.5,35.5 Z"/></g>
<g><path style="opacity:1" fill="#5785b5" d="M 102.5,38.5 C 103.922,38.7086 105.255,39.2086 106.5,40C 112.95,47.6176 119.95,54.7842 127.5,61.5C 127.5,66.1667 127.5,70.8333 127.5,75.5C 125.863,81.5702 123.696,87.5702 121,93.5C 119.021,97.3003 116.521,100.634 113.5,103.5C 111.529,105.152 109.196,106.319 106.5,107C 105.96,109.107 104.96,111.274 103.5,113.5C 98.6322,118.104 92.9655,121.437 86.5,123.5C 75.2669,113.696 64.9336,103.03 55.5,91.5C 58.7194,88.7365 61.7194,85.7365 64.5,82.5C 66.0938,83.983 67.7605,85.483 69.5,87C 67.7536,87.4709 66.087,88.1376 64.5,89C 66.4494,90.8347 68.7827,92.0014 71.5,92.5C 70.8333,93.1667 70.1667,93.8333 69.5,94.5C 71.6644,97.1594 72.9977,100.159 73.5,103.5C 75.5,103.5 77.5,103.5 79.5,103.5C 79.5,102.167 79.5,100.833 79.5,99.5C 80.8333,99.5 82.1667,99.5 83.5,99.5C 83.5,98.5 83.5,97.5 83.5,96.5C 85.288,96.7852 86.9547,96.4519 88.5,95.5C 92.1563,85.8496 93.8229,86.1829 93.5,96.5C 94.9305,96.5792 96.2638,96.2458 97.5,95.5C 98.4829,89.1892 99.3162,82.8559 100,76.5C 100.5,76 101,75.5 101.5,75C 100.427,72.3434 98.7605,70.1768 96.5,68.5C 98.9635,65.6723 100.297,62.6723 100.5,59.5C 101.167,52.3447 101.833,45.3447 102.5,38.5 Z"/></g>
<g><path style="opacity:1" fill="#4a698d" d="M 122.5,38.5 C 124.472,41.0836 125.472,44.0836 125.5,47.5C 123.145,45.0774 122.145,42.0774 122.5,38.5 Z"/></g>
<g><path style="opacity:1" fill="#f8fbfd" d="M 97.5,32.5 C 98.8333,33.5 98.8333,34.5 97.5,35.5C 93.8726,37.7935 90.5393,40.4602 87.5,43.5C 74.0635,50.7218 61.0635,58.7218 48.5,67.5C 49.9301,74.3455 51.5968,81.0121 53.5,87.5C 53.5,88.5 53.5,89.5 53.5,90.5C 52.8826,90.3893 52.3826,90.056 52,89.5C 50.1301,82.7238 47.9634,76.0572 45.5,69.5C 39.5158,67.3356 33.5158,65.169 27.5,63C 26.2889,61.8869 26.2889,60.7202 27.5,59.5C 50.6382,49.9284 73.9715,40.9284 97.5,32.5 Z"/></g>
<g><path style="opacity:1" fill="#5b86b1" d="M 100.5,35.5 C 101.906,35.9731 102.573,36.9731 102.5,38.5C 101.833,45.3447 101.167,52.3447 100.5,59.5C 100.297,62.6723 98.9635,65.6723 96.5,68.5C 98.7605,70.1768 100.427,72.3434 101.5,75C 101,75.5 100.5,76 100,76.5C 99.3162,82.8559 98.4829,89.1892 97.5,95.5C 96.2638,96.2458 94.9305,96.5792 93.5,96.5C 93.8229,86.1829 92.1563,85.8496 88.5,95.5C 86.9547,96.4519 85.288,96.7852 83.5,96.5C 83.5,97.5 83.5,98.5 83.5,99.5C 82.1667,99.5 80.8333,99.5 79.5,99.5C 79.5,100.833 79.5,102.167 79.5,103.5C 77.5,103.5 75.5,103.5 73.5,103.5C 72.9977,100.159 71.6644,97.1594 69.5,94.5C 70.1667,93.8333 70.8333,93.1667 71.5,92.5C 68.7827,92.0014 66.4494,90.8347 64.5,89C 66.087,88.1376 67.7536,87.4709 69.5,87C 67.7605,85.483 66.0938,83.983 64.5,82.5C 64.5,82.1667 64.5,81.8333 64.5,81.5C 70.5409,84.6948 76.2076,88.5282 81.5,93C 83.6237,94.5822 85.7904,94.7488 88,93.5C 92.6124,74.272 96.7791,54.9387 100.5,35.5 Z"/></g>
<g><path style="opacity:1" fill="#b5bcc3" d="M 87.5,43.5 C 77.5777,53.5805 67.0777,63.2472 56,72.5C 55.9106,77.7661 55.0772,82.7661 53.5,87.5C 51.5968,81.0121 49.9301,74.3455 48.5,67.5C 61.0635,58.7218 74.0635,50.7218 87.5,43.5 Z"/></g>
<g><path style="opacity:1" fill="#446581" d="M 1.5,80.5 C 3.85602,82.5573 4.85602,85.224 4.5,88.5C 2.73292,86.2084 1.73292,83.5418 1.5,80.5 Z"/></g>
<g><path style="opacity:1" fill="#cad1d9" d="M 97.5,32.5 C 99.1436,32.8102 100.144,33.8102 100.5,35.5C 96.7791,54.9387 92.6124,74.272 88,93.5C 85.7904,94.7488 83.6237,94.5822 81.5,93C 76.2076,88.5282 70.5409,84.6948 64.5,81.5C 67.7211,82.3816 71.3877,82.3816 75.5,81.5C 76.258,86.5451 78.9246,88.5451 83.5,87.5C 83.4567,91.9287 84.9567,92.9287 88,90.5C 88.6113,83.7215 89.778,77.0548 91.5,70.5C 90.8257,68.4835 89.6591,66.8168 88,65.5C 87.1764,62.1177 87.343,58.7844 88.5,55.5C 89.5873,60.7402 90.5873,60.7402 91.5,55.5C 92.5,55.5 93.5,55.5 94.5,55.5C 94.5723,48.6587 95.5723,41.9921 97.5,35.5C 98.8333,34.5 98.8333,33.5 97.5,32.5 Z"/></g>
<g><path style="opacity:1" fill="#496686" d="M 113.5,103.5 C 111.167,107.833 107.833,111.167 103.5,113.5C 104.96,111.274 105.96,109.107 106.5,107C 109.196,106.319 111.529,105.152 113.5,103.5 Z"/></g>
<g><path style="opacity:0.722" fill="#364758" d="M 19.5,110.5 C 21.4044,110.738 22.7377,111.738 23.5,113.5C 21.5956,113.262 20.2623,112.262 19.5,110.5 Z"/></g>
<g><path style="opacity:1" fill="#5b6f96" d="M 23.5,113.5 C 27.0709,113.561 29.4042,115.227 30.5,118.5C 27.6298,117.567 25.2964,115.9 23.5,113.5 Z"/></g>
<g><path style="opacity:1" fill="#688ab7" d="M 61.5,127.5 C 58.5,127.5 55.5,127.5 52.5,127.5C 47.6277,126.447 42.9611,124.781 38.5,122.5C 39.9778,122.762 41.3112,122.429 42.5,121.5C 41.4937,120.604 41.4937,119.938 42.5,119.5C 44.2174,120.668 44.8841,122.335 44.5,124.5C 50.5563,124.127 56.223,125.127 61.5,127.5 Z"/></g>
</svg>
