<?xml version="1.0" encoding="UTF-8"?>
<!DOCTYPE svg PUBLIC "-//W3C//DTD SVG 1.1//EN" "http://www.w3.org/Graphics/SVG/1.1/DTD/svg11.dtd">
<svg xmlns="http://www.w3.org/2000/svg" version="1.1" width="128px" height="128px" style="shape-rendering:geometricPrecision; text-rendering:geometricPrecision; image-rendering:optimizeQuality; fill-rule:evenodd; clip-rule:evenodd" xmlns:xlink="http://www.w3.org/1999/xlink">
<g><path style="opacity:1" fill="#7e4e9f" d="M 51.5,-0.5 C 58.1667,-0.5 64.8333,-0.5 71.5,-0.5C 71.4701,0.497222 71.9701,1.16389 73,1.5C 76.1868,2.04464 79.3535,2.71131 82.5,3.5C 84.9585,4.91898 87.6251,5.91898 90.5,6.5C 92.3463,7.76475 94.1797,9.09809 96,10.5C 96.9862,9.82881 98.1529,9.82881 99.5,10.5C 101.027,10.427 102.027,11.0937 102.5,12.5C 102.5,13.8333 102.5,15.1667 102.5,16.5C 103.5,16.5 104.5,16.5 105.5,16.5C 105.5,18.1667 105.5,19.8333 105.5,21.5C 107.5,21.5 109.5,21.5 111.5,21.5C 112.387,26.5675 115.054,30.2341 119.5,32.5C 123.343,38.3674 126.009,44.7008 127.5,51.5C 127.5,57.5 127.5,63.5 127.5,69.5C 124.91,73.6932 123.91,78.3599 124.5,83.5C 124.293,86.2406 123.293,88.5739 121.5,90.5C 119.815,91.1837 118.815,92.517 118.5,94.5C 117.675,95.3857 116.675,95.719 115.5,95.5C 115.5,97.1667 115.5,98.8333 115.5,100.5C 114.5,100.5 113.5,100.5 112.5,100.5C 112.817,104.172 111.151,105.838 107.5,105.5C 107.715,107.179 107.048,108.179 105.5,108.5C 104.399,107.152 103.399,105.652 102.5,104C 100.801,103.607 99.3008,104.107 98,105.5C 97.228,105.355 96.5613,105.022 96,104.5C 95.6667,103.167 95.3333,101.833 95,100.5C 94.3292,101.252 93.4959,101.586 92.5,101.5C 95.147,98.883 97.3137,95.883 99,92.5C 99.7063,90.0288 99.373,87.6954 98,85.5C 92.4827,80.4797 86.3161,76.4797 79.5,73.5C 76.1972,75.138 73.5305,77.4714 71.5,80.5C 68.4299,80.6323 65.4299,80.299 62.5,79.5C 55.1095,75.776 49.7762,70.1093 46.5,62.5C 46.5079,59.4552 46.8413,56.4552 47.5,53.5C 50.2734,52.0453 51.9401,49.712 52.5,46.5C 51.1715,43.8431 49.8382,41.1764 48.5,38.5C 48.5086,36.6916 48.0086,35.0249 47,33.5C 44.9146,31.9179 43.4146,29.9179 42.5,27.5C 37.8491,26.2969 33.1825,26.2969 28.5,27.5C 28.5,28.8333 28.5,30.1667 28.5,31.5C 28.1667,31.5 27.8333,31.5 27.5,31.5C 27.1667,31.5 26.8333,31.5 26.5,31.5C 25.9233,28.3551 23.9233,26.8551 20.5,27C 21.6761,23.6908 20.3428,22.1908 16.5,22.5C 19.2695,19.8465 21.6029,16.8465 23.5,13.5C 27.033,9.56521 31.3664,6.89854 36.5,5.5C 40.5404,5.10947 44.2071,3.77614 47.5,1.5C 48.8333,0.833333 50.1667,0.166667 51.5,-0.5 Z"/></g>
<g><path style="opacity:0.945" fill="#51366c" d="M 47.5,1.5 C 44.2071,3.77614 40.5404,5.10947 36.5,5.5C 39.6599,3.00003 43.3266,1.6667 47.5,1.5 Z"/></g>
<g><path style="opacity:1" fill="#5f3c76" d="M 71.5,-0.5 C 72.8333,-0.5 74.1667,-0.5 75.5,-0.5C 80.8228,1.00758 86.1561,2.84092 91.5,5C 94.4068,6.60911 97.0734,8.44245 99.5,10.5C 98.1529,9.82881 96.9862,9.82881 96,10.5C 94.1797,9.09809 92.3463,7.76475 90.5,6.5C 87.6251,5.91898 84.9585,4.91898 82.5,3.5C 79.3535,2.71131 76.1868,2.04464 73,1.5C 71.9701,1.16389 71.4701,0.497222 71.5,-0.5 Z"/></g>
<g><path style="opacity:1" fill="#7d4d9e" d="M 16.5,22.5 C 20.3428,22.1908 21.6761,23.6908 20.5,27C 23.9233,26.8551 25.9233,28.3551 26.5,31.5C 23.0318,33.6172 21.6985,36.7839 22.5,41C 22.5332,43.6103 23.1999,45.777 24.5,47.5C 24.3367,49.8568 24.5034,52.1902 25,54.5C 25.3333,54.1667 25.6667,53.8333 26,53.5C 28.0822,57.2359 29.4156,61.2359 30,65.5C 34.4986,67.2826 36.332,70.616 35.5,75.5C 39.5976,76.3848 43.2643,78.0515 46.5,80.5C 52.0253,85.0872 57.6919,89.4205 63.5,93.5C 63.4142,94.4959 63.7476,95.3292 64.5,96C 72.2674,102.3 81.2674,104.966 91.5,104C 92.2524,103.329 92.5858,102.496 92.5,101.5C 93.4959,101.586 94.3292,101.252 95,100.5C 95.3333,101.833 95.6667,103.167 96,104.5C 96.5613,105.022 97.228,105.355 98,105.5C 99.3008,104.107 100.801,103.607 102.5,104C 103.399,105.652 104.399,107.152 105.5,108.5C 105.169,110.322 104.502,111.989 103.5,113.5C 100.012,117.417 95.6788,120.083 90.5,121.5C 85.3046,121.523 80.9712,123.19 77.5,126.5C 76.209,126.263 75.209,126.596 74.5,127.5C 70.1667,127.5 65.8333,127.5 61.5,127.5C 58.4588,126.771 55.4588,125.604 52.5,124C 50.4325,123.313 48.4325,123.48 46.5,124.5C 45.0019,122.841 43.5019,121.175 42,119.5C 40.4029,120.885 38.5695,121.551 36.5,121.5C 35.7002,119.259 34.0336,118.259 31.5,118.5C 31.7135,116.856 31.3802,115.356 30.5,114C 28.1902,113.503 25.8568,113.337 23.5,113.5C 22.7377,111.738 21.4044,110.738 19.5,110.5C 17.8333,109.5 16.5,108.167 15.5,106.5C 15.573,104.973 14.9063,103.973 13.5,103.5C 11.1,101.704 9.43334,99.3702 8.5,96.5C 7.29485,92.4868 7.29485,88.4868 8.5,84.5C 6.5165,84.6168 4.84983,83.9501 3.5,82.5C 2.91275,78.4328 1.57941,74.7662 -0.5,71.5C -0.5,64.8333 -0.5,58.1667 -0.5,51.5C 0.883252,46.0268 2.88325,40.6934 5.5,35.5C 9.70432,30.9878 13.371,26.6545 16.5,22.5 Z"/></g>
<g><path style="opacity:1" fill="#fdfafd" d="M 48.5,38.5 C 49.8382,41.1764 51.1715,43.8431 52.5,46.5C 51.9401,49.712 50.2734,52.0453 47.5,53.5C 43.8836,56.082 43.5502,59.082 46.5,62.5C 49.7762,70.1093 55.1095,75.776 62.5,79.5C 62.9867,80.4734 63.4867,81.4734 64,82.5C 66.6073,81.8767 69.1073,81.21 71.5,80.5C 73.5305,77.4714 76.1972,75.138 79.5,73.5C 86.3161,76.4797 92.4827,80.4797 98,85.5C 99.373,87.6954 99.7063,90.0288 99,92.5C 97.3137,95.883 95.147,98.883 92.5,101.5C 89.7413,103.293 86.7413,103.793 83.5,103C 76.4784,100.452 69.8117,97.2857 63.5,93.5C 57.6919,89.4205 52.0253,85.0872 46.5,80.5C 37.5036,70.5231 30.1702,59.5231 24.5,47.5C 22.4568,41.4968 23.4568,36.1635 27.5,31.5C 27.8333,31.5 28.1667,31.5 28.5,31.5C 31.293,27.8291 34.9597,26.6624 39.5,28C 43.114,31.1033 46.114,34.6033 48.5,38.5 Z"/></g>
<g><path style="opacity:1" fill="#64407a" d="M 102.5,12.5 C 110.352,17.3489 116.019,24.0156 119.5,32.5C 115.054,30.2341 112.387,26.5675 111.5,21.5C 109.5,21.5 107.5,21.5 105.5,21.5C 105.5,19.8333 105.5,18.1667 105.5,16.5C 104.5,16.5 103.5,16.5 102.5,16.5C 102.5,15.1667 102.5,13.8333 102.5,12.5 Z"/></g>
<g><path style="opacity:1" fill="#5c3d78" d="M 23.5,13.5 C 21.6029,16.8465 19.2695,19.8465 16.5,22.5C 13.371,26.6545 9.70432,30.9878 5.5,35.5C 7.68343,30.4734 10.5168,25.8067 14,21.5C 16.7663,18.2232 19.933,15.5566 23.5,13.5 Z"/></g>
<g><path style="opacity:1" fill="#f9f0fb" d="M 87.5,34.5 C 89.5293,36.8585 91.5293,39.1918 93.5,41.5C 95.3548,45.7263 97.0214,50.0596 98.5,54.5C 98.5,58.5 98.5,62.5 98.5,66.5C 96.8333,66.5 95.1667,66.5 93.5,66.5C 95.4672,50.4271 89.1339,39.0938 74.5,32.5C 70.2177,31.2746 65.8844,30.1079 61.5,29C 60.6634,27.9887 60.33,26.8221 60.5,25.5C 70.6808,25.1158 79.6808,28.1158 87.5,34.5 Z"/></g>
<g><path style="opacity:1" fill="#885e98" d="M 48.5,38.5 C 46.114,34.6033 43.114,31.1033 39.5,28C 34.9597,26.6624 31.293,27.8291 28.5,31.5C 28.5,30.1667 28.5,28.8333 28.5,27.5C 33.1825,26.2969 37.8491,26.2969 42.5,27.5C 43.4146,29.9179 44.9146,31.9179 47,33.5C 48.0086,35.0249 48.5086,36.6916 48.5,38.5 Z"/></g>
<g><path style="opacity:1" fill="#7d5d92" d="M 87.5,34.5 C 91.5408,35.1669 93.5408,37.5003 93.5,41.5C 91.5293,39.1918 89.5293,36.8585 87.5,34.5 Z"/></g>
<g><path style="opacity:1" fill="#825a9a" d="M 74.5,32.5 C 89.1339,39.0938 95.4672,50.4271 93.5,66.5C 95.1667,66.5 96.8333,66.5 98.5,66.5C 98.5,62.5 98.5,58.5 98.5,54.5C 99.1174,54.6107 99.6174,54.944 100,55.5C 100.667,59.8333 100.667,64.1667 100,68.5C 97.6667,69.1667 95.3333,69.8333 93,70.5C 91.7978,68.3225 91.2978,65.9892 91.5,63.5C 89.7376,63.3573 88.0709,63.6906 86.5,64.5C 85.7025,64.0431 85.3691,63.3764 85.5,62.5C 86.8333,62.5 88.1667,62.5 89.5,62.5C 89.9348,46.9461 82.6014,37.6128 67.5,34.5C 70.3878,35.0102 72.7211,34.3435 74.5,32.5 Z"/></g>
<g><path style="opacity:1" fill="#946fab" d="M 26.5,31.5 C 26.8333,31.5 27.1667,31.5 27.5,31.5C 23.4568,36.1635 22.4568,41.4968 24.5,47.5C 23.1999,45.777 22.5332,43.6103 22.5,41C 21.6985,36.7839 23.0318,33.6172 26.5,31.5 Z"/></g>
<g><path style="opacity:1" fill="#faf2fb" d="M 67.5,44.5 C 76.6733,45.4952 80.84,50.4952 80,59.5C 78.9887,60.3366 77.8221,60.67 76.5,60.5C 77.3917,53.5634 74.3917,49.7301 67.5,49C 66.6634,47.9887 66.33,46.8221 66.5,45.5C 66.5,44.8333 66.8333,44.5 67.5,44.5 Z"/></g>
<g><path style="opacity:1" fill="#faf3fb" d="M 67.5,34.5 C 82.6014,37.6128 89.9348,46.9461 89.5,62.5C 88.1667,62.5 86.8333,62.5 85.5,62.5C 84.8902,61.609 84.5569,60.609 84.5,59.5C 84.7764,50.3714 80.7764,44.0381 72.5,40.5C 69.6596,39.8796 66.8263,39.2129 64,38.5C 63.1531,35.5096 64.3198,34.1762 67.5,34.5 Z"/></g>
<g><path style="opacity:1" fill="#7f5a97" d="M 72.5,40.5 C 80.7764,44.0381 84.7764,50.3714 84.5,59.5C 82.4078,59.5614 80.9078,60.5614 80,62.5C 74.2761,61.6895 71.9428,58.3562 73,52.5C 70.6667,51.5 68.3333,50.5 66,49.5C 65.5,48.5 65,47.5 64.5,46.5C 64.9569,45.7025 65.6236,45.3691 66.5,45.5C 66.33,46.8221 66.6634,47.9887 67.5,49C 74.3917,49.7301 77.3917,53.5634 76.5,60.5C 77.8221,60.67 78.9887,60.3366 80,59.5C 80.84,50.4952 76.6733,45.4952 67.5,44.5C 68.9187,43.5489 70.5853,43.2155 72.5,43.5C 72.5,42.5 72.5,41.5 72.5,40.5 Z"/></g>
<g><path style="opacity:1" fill="#8b719d" d="M 47.5,53.5 C 46.8413,56.4552 46.5079,59.4552 46.5,62.5C 43.5502,59.082 43.8836,56.082 47.5,53.5 Z"/></g>
<g><path style="opacity:1" fill="#7f589c" d="M 24.5,47.5 C 30.1702,59.5231 37.5036,70.5231 46.5,80.5C 43.2643,78.0515 39.5976,76.3848 35.5,75.5C 36.332,70.616 34.4986,67.2826 30,65.5C 29.4156,61.2359 28.0822,57.2359 26,53.5C 25.6667,53.8333 25.3333,54.1667 25,54.5C 24.5034,52.1902 24.3367,49.8568 24.5,47.5 Z"/></g>
<g><path style="opacity:1" fill="#58326f" d="M 127.5,69.5 C 127.5,71.5 127.5,73.5 127.5,75.5C 126.5,78.1667 125.5,80.8333 124.5,83.5C 123.91,78.3599 124.91,73.6932 127.5,69.5 Z"/></g>
<g><path style="opacity:1" fill="#d5bce1" d="M 62.5,79.5 C 65.4299,80.299 68.4299,80.6323 71.5,80.5C 69.1073,81.21 66.6073,81.8767 64,82.5C 63.4867,81.4734 62.9867,80.4734 62.5,79.5 Z"/></g>
<g><path style="opacity:1" fill="#644083" d="M -0.5,71.5 C 1.57941,74.7662 2.91275,78.4328 3.5,82.5C 4.84983,83.9501 6.5165,84.6168 8.5,84.5C 7.29485,88.4868 7.29485,92.4868 8.5,96.5C 4.13106,90.0515 1.13106,83.0515 -0.5,75.5C -0.5,74.1667 -0.5,72.8333 -0.5,71.5 Z"/></g>
<g><path style="opacity:1" fill="#7b5698" d="M 63.5,93.5 C 69.8117,97.2857 76.4784,100.452 83.5,103C 86.7413,103.793 89.7413,103.293 92.5,101.5C 92.5858,102.496 92.2524,103.329 91.5,104C 81.2674,104.966 72.2674,102.3 64.5,96C 63.7476,95.3292 63.4142,94.4959 63.5,93.5 Z"/></g>
<g><path style="opacity:0.008" fill="#1d1621" d="M 13.5,103.5 C 14.9063,103.973 15.573,104.973 15.5,106.5C 14.0937,106.027 13.427,105.027 13.5,103.5 Z"/></g>
<g><path style="opacity:1" fill="#55386c" d="M 121.5,90.5 C 119.722,96.051 116.889,101.051 113,105.5C 110.234,108.777 107.067,111.443 103.5,113.5C 104.502,111.989 105.169,110.322 105.5,108.5C 107.048,108.179 107.715,107.179 107.5,105.5C 111.151,105.838 112.817,104.172 112.5,100.5C 113.5,100.5 114.5,100.5 115.5,100.5C 115.5,98.8333 115.5,97.1667 115.5,95.5C 116.675,95.719 117.675,95.3857 118.5,94.5C 118.815,92.517 119.815,91.1837 121.5,90.5 Z"/></g>
<g><path style="opacity:0.655" fill="#2f2238" d="M 19.5,110.5 C 21.4044,110.738 22.7377,111.738 23.5,113.5C 21.5956,113.262 20.2623,112.262 19.5,110.5 Z"/></g>
<g><path style="opacity:1" fill="#603d7a" d="M 23.5,113.5 C 25.8568,113.337 28.1902,113.503 30.5,114C 31.3802,115.356 31.7135,116.856 31.5,118.5C 34.0336,118.259 35.7002,119.259 36.5,121.5C 31.3212,120.083 26.9879,117.417 23.5,113.5 Z"/></g>
<g><path style="opacity:1" fill="#533768" d="M 90.5,121.5 C 86.6237,124.129 82.2904,125.796 77.5,126.5C 80.9712,123.19 85.3046,121.523 90.5,121.5 Z"/></g>
<g><path style="opacity:1" fill="#6c458b" d="M 61.5,127.5 C 58.5,127.5 55.5,127.5 52.5,127.5C 46.8429,126.417 41.5095,124.417 36.5,121.5C 38.5695,121.551 40.4029,120.885 42,119.5C 43.5019,121.175 45.0019,122.841 46.5,124.5C 48.4325,123.48 50.4325,123.313 52.5,124C 55.4588,125.604 58.4588,126.771 61.5,127.5 Z"/></g>
</svg>
