<?xml version="1.0" encoding="UTF-8"?>
<!DOCTYPE svg PUBLIC "-//W3C//DTD SVG 1.1//EN" "http://www.w3.org/Graphics/SVG/1.1/DTD/svg11.dtd">
<svg xmlns="http://www.w3.org/2000/svg" version="1.1" width="128px" height="128px" style="shape-rendering:geometricPrecision; text-rendering:geometricPrecision; image-rendering:optimizeQuality; fill-rule:evenodd; clip-rule:evenodd" xmlns:xlink="http://www.w3.org/1999/xlink">
<g><path style="opacity:1" fill="#24d064" d="M 55.5,-0.5 C 62.1667,-0.5 68.8333,-0.5 75.5,-0.5C 79.9997,0.709367 84.333,2.37603 88.5,4.5C 86.4442,6.24014 85.1109,8.57347 84.5,11.5C 83.52,14.0865 83.1866,16.7531 83.5,19.5C 79.0293,18.9106 75.0293,19.5772 71.5,21.5C 64.5793,21.7566 57.746,22.4233 51,23.5C 49.2435,22.015 48.0768,22.3484 47.5,24.5C 43.3821,23.6034 42.7155,21.6034 45.5,18.5C 43.7045,17.8586 42.2045,16.8586 41,15.5C 40.6667,16.1667 40.3333,16.8333 40,17.5C 37.1093,14.777 36.776,11.777 39,8.5C 39.2022,10.2556 39.7022,11.9223 40.5,13.5C 43.0306,11.8407 43.6973,9.84071 42.5,7.5C 43.1534,6.19322 43.8201,4.85989 44.5,3.5C 48.1073,2.51078 51.774,2.17744 55.5,2.5C 55.5,1.5 55.5,0.5 55.5,-0.5 Z"/></g>
<g><path style="opacity:1" fill="#27bc60" d="M 51.5,-0.5 C 52.8333,-0.5 54.1667,-0.5 55.5,-0.5C 55.5,0.5 55.5,1.5 55.5,2.5C 51.774,2.17744 48.1073,2.51078 44.5,3.5C 43.8201,4.85989 43.1534,6.19322 42.5,7.5C 37.1171,7.01772 32.2837,8.68438 28,12.5C 27.5172,13.448 27.3505,14.448 27.5,15.5C 25.8333,15.5 24.1667,15.5 22.5,15.5C 22.8333,14.8333 23.1667,14.1667 23.5,13.5C 25.9505,10.7232 28.9505,8.72316 32.5,7.5C 34.0269,7.57298 35.0269,6.90632 35.5,5.5C 40.6934,2.88325 46.0268,0.883252 51.5,-0.5 Z"/></g>
<g><path style="opacity:0.8" fill="#106d33" d="M 35.5,5.5 C 35.0269,6.90632 34.0269,7.57298 32.5,7.5C 32.9731,6.09368 33.9731,5.42702 35.5,5.5 Z"/></g>
<g><path style="opacity:1" fill="#26d166" d="M 88.5,4.5 C 89.791,4.26269 90.791,4.59603 91.5,5.5C 91.9709,6.90082 92.6376,8.23415 93.5,9.5C 94.4255,8.35945 95.2588,8.35945 96,9.5C 96.3095,10.7659 96.8095,11.9326 97.5,13C 100.445,14.1305 103.445,14.9638 106.5,15.5C 106.525,18.179 107.858,19.5123 110.5,19.5C 110.738,21.4044 111.738,22.7377 113.5,23.5C 114.536,25.3911 114.536,27.2245 113.5,29C 114.126,29.7504 114.626,30.5838 115,31.5C 115.333,31.1667 115.667,30.8333 116,30.5C 117.307,32.1918 118.807,33.5251 120.5,34.5C 121.674,35.5137 122.34,36.847 122.5,38.5C 122.446,41.9924 123.446,44.9924 125.5,47.5C 125.336,50.1873 125.503,52.854 126,55.5C 126.383,56.056 126.883,56.3893 127.5,56.5C 127.5,62.8333 127.5,69.1667 127.5,75.5C 126.291,79.9997 124.624,84.333 122.5,88.5C 122.319,85.6029 122.652,82.7695 123.5,80C 122.337,78.1446 120.67,76.8112 118.5,76C 121.362,74.4512 123.362,72.1178 124.5,69C 123.704,67.9079 123.037,66.7412 122.5,65.5C 123.53,61.5351 123.697,57.5351 123,53.5C 121.644,52.6198 120.144,52.2865 118.5,52.5C 118.5,53.5 118.5,54.5 118.5,55.5C 116.167,55.5 113.833,55.5 111.5,55.5C 110.833,52.8333 110.167,50.1667 109.5,47.5C 105.849,47.1617 104.183,48.8284 104.5,52.5C 103.833,52.1667 103.167,51.8333 102.5,51.5C 101.302,46.772 99.3019,42.4387 96.5,38.5C 96.415,36.0712 95.415,34.0712 93.5,32.5C 94.6682,31.0944 94.3348,29.9277 92.5,29C 98.489,28.0637 98.8224,25.897 93.5,22.5C 91.0847,22.7189 90.0847,24.0523 90.5,26.5C 89.1266,26.6567 87.7932,26.49 86.5,26C 87.7112,25.1072 87.7112,24.2739 86.5,23.5C 85.7836,24.311 84.9503,24.9777 84,25.5C 80.9063,24.4345 77.7396,23.7678 74.5,23.5C 73.5,22.8333 72.5,22.1667 71.5,21.5C 75.0293,19.5772 79.0293,18.9106 83.5,19.5C 83.1866,16.7531 83.52,14.0865 84.5,11.5C 85.1109,8.57347 86.4442,6.24014 88.5,4.5 Z"/></g>
<g><path style="opacity:1" fill="#22a95a" d="M 91.5,5.5 C 97.0492,8.05634 102.049,11.3897 106.5,15.5C 103.445,14.9638 100.445,14.1305 97.5,13C 96.8095,11.9326 96.3095,10.7659 96,9.5C 95.2588,8.35945 94.4255,8.35945 93.5,9.5C 92.6376,8.23415 91.9709,6.90082 91.5,5.5 Z"/></g>
<g><path style="opacity:1" fill="#26d267" d="M 42.5,7.5 C 43.6973,9.84071 43.0306,11.8407 40.5,13.5C 39.7022,11.9223 39.2022,10.2556 39,8.5C 36.776,11.777 37.1093,14.777 40,17.5C 40.3333,16.8333 40.6667,16.1667 41,15.5C 42.2045,16.8586 43.7045,17.8586 45.5,18.5C 42.7155,21.6034 43.3821,23.6034 47.5,24.5C 46.8166,26.1765 45.4832,26.8432 43.5,26.5C 43.5,27.5 43.5,28.5 43.5,29.5C 40.4569,31.5433 38.1236,34.2099 36.5,37.5C 32.7271,41.1511 30.0605,45.4844 28.5,50.5C 28.1667,50.5 27.8333,50.5 27.5,50.5C 27.8076,48.076 27.4742,45.7427 26.5,43.5C 25.9037,47.3435 24.9037,51.0101 23.5,54.5C 27.1021,59.7834 25.7688,62.7834 19.5,63.5C 19.5,61.5 19.5,59.5 19.5,57.5C 18.1667,57.5 16.8333,57.5 15.5,57.5C 15.5,56.1667 15.5,54.8333 15.5,53.5C 12.7508,53.7261 10.0841,53.3928 7.5,52.5C 6.35536,51.2243 6.35536,49.891 7.5,48.5C 6.5,47.1667 5.5,47.1667 4.5,48.5C 5.1008,52.1594 5.76746,55.8261 6.5,59.5C 7.42869,58.3112 7.76202,56.9778 7.5,55.5C 11.5274,55.2808 12.1941,56.4475 9.5,59C 11.3888,62.8362 12.0555,67.0029 11.5,71.5C 9.5,71.5 7.5,71.5 5.5,71.5C 5.3542,75.5191 5.02087,79.5191 4.5,83.5C 3.83431,80.9723 3.16764,78.3056 2.5,75.5C 1.94316,73.6684 0.943157,72.3351 -0.5,71.5C -0.5,64.8333 -0.5,58.1667 -0.5,51.5C -0.166667,51.5 0.166667,51.5 0.5,51.5C 1.72507,50.8478 2.39174,49.6811 2.5,48C 2.91719,45.5021 3.25053,43.0021 3.5,40.5C 4.14987,40.1961 4.81654,39.8627 5.5,39.5C 6.8698,36.5817 7.8698,33.5817 8.5,30.5C 9.90632,30.0269 10.573,29.0269 10.5,27.5C 12.4456,26.9653 13.4456,25.632 13.5,23.5C 15.5869,22.4154 16.9202,20.7488 17.5,18.5C 19.4113,17.925 21.078,16.925 22.5,15.5C 24.1667,15.5 25.8333,15.5 27.5,15.5C 27.3505,14.448 27.5172,13.448 28,12.5C 32.2837,8.68438 37.1171,7.01772 42.5,7.5 Z"/></g>
<g><path style="opacity:0.804" fill="#116f38" d="M 23.5,13.5 C 23.1667,14.1667 22.8333,14.8333 22.5,15.5C 21.078,16.925 19.4113,17.925 17.5,18.5C 18.9108,16.086 20.9108,14.4194 23.5,13.5 Z"/></g>
<g><path style="opacity:1" fill="#169048" d="M 106.5,15.5 C 108.167,16.5 109.5,17.8333 110.5,19.5C 107.858,19.5123 106.525,18.179 106.5,15.5 Z"/></g>
<g><path style="opacity:0.745" fill="#0d5e2e" d="M 110.5,19.5 C 112.262,20.2623 113.262,21.5956 113.5,23.5C 111.738,22.7377 110.738,21.4044 110.5,19.5 Z"/></g>
<g><path style="opacity:0.667" fill="#0c6033" d="M 17.5,18.5 C 16.9202,20.7488 15.5869,22.4154 13.5,23.5C 14.0798,21.2512 15.4131,19.5846 17.5,18.5 Z"/></g>
<g><path style="opacity:1" fill="#44d074" d="M 71.5,21.5 C 72.5,22.1667 73.5,22.8333 74.5,23.5C 63.3146,21.9447 52.9813,23.9447 43.5,29.5C 43.5,28.5 43.5,27.5 43.5,26.5C 45.4832,26.8432 46.8166,26.1765 47.5,24.5C 48.0768,22.3484 49.2435,22.015 51,23.5C 57.746,22.4233 64.5793,21.7566 71.5,21.5 Z"/></g>
<g><path style="opacity:1" fill="#3acf6d" d="M 96.5,38.5 C 90.5231,31.5115 83.1898,26.5115 74.5,23.5C 77.7396,23.7678 80.9063,24.4345 84,25.5C 84.9503,24.9777 85.7836,24.311 86.5,23.5C 87.7112,24.2739 87.7112,25.1072 86.5,26C 87.7932,26.49 89.1266,26.6567 90.5,26.5C 90.0847,24.0523 91.0847,22.7189 93.5,22.5C 98.8224,25.897 98.489,28.0637 92.5,29C 94.3348,29.9277 94.6682,31.0944 93.5,32.5C 95.415,34.0712 96.415,36.0712 96.5,38.5 Z"/></g>
<g><path style="opacity:1" fill="#1a954b" d="M 13.5,23.5 C 13.4456,25.632 12.4456,26.9653 10.5,27.5C 10.7376,25.5956 11.7376,24.2623 13.5,23.5 Z"/></g>
<g><path style="opacity:0.553" fill="#056927" d="M 10.5,27.5 C 10.573,29.0269 9.90632,30.0269 8.5,30.5C 8.42702,28.9731 9.09368,27.9731 10.5,27.5 Z"/></g>
<g><path style="opacity:0.459" fill="#076529" d="M 116.5,27.5 C 117.906,27.9731 118.573,28.9731 118.5,30.5C 117.094,30.0269 116.427,29.0269 116.5,27.5 Z"/></g>
<g><path style="opacity:1" fill="#26b861" d="M 113.5,23.5 C 115.262,24.2623 116.262,25.5956 116.5,27.5C 116.427,29.0269 117.094,30.0269 118.5,30.5C 119.674,31.5137 120.34,32.847 120.5,34.5C 118.807,33.5251 117.307,32.1918 116,30.5C 115.667,30.8333 115.333,31.1667 115,31.5C 114.626,30.5838 114.126,29.7504 113.5,29C 114.536,27.2245 114.536,25.3911 113.5,23.5 Z"/></g>
<g><path style="opacity:1" fill="#1da14f" d="M 8.5,30.5 C 7.8698,33.5817 6.8698,36.5817 5.5,39.5C 4.81654,39.8627 4.14987,40.1961 3.5,40.5C 4.42085,36.701 6.08752,33.3677 8.5,30.5 Z"/></g>
<g><path style="opacity:1" fill="#25d466" d="M 89.5,45.5 C 90.4972,45.4701 91.1639,45.9701 91.5,47C 90.8789,50.1855 90.2122,53.3522 89.5,56.5C 90.0016,57.521 90.6683,57.6877 91.5,57C 92.0712,55.7949 92.7379,54.6283 93.5,53.5C 94.8333,59.8333 94.8333,66.1667 93.5,72.5C 91.5495,74.0924 90.2162,76.0924 89.5,78.5C 88.675,79.3857 87.675,79.719 86.5,79.5C 86.5,80.5 86.5,81.5 86.5,82.5C 85.5,82.5 84.5,82.5 83.5,82.5C 83.5,80.5 83.5,78.5 83.5,76.5C 83.5,76.1667 83.5,75.8333 83.5,75.5C 85.4136,72.3157 86.0803,68.649 85.5,64.5C 83.1667,64.5 80.8333,64.5 78.5,64.5C 79.4524,58.9252 79.7857,53.2586 79.5,47.5C 79.5,46.1667 79.5,44.8333 79.5,43.5C 82.5,43.1667 83.8333,44.5 83.5,47.5C 85.5,47.8333 87.5,48.1667 89.5,48.5C 89.5,47.5 89.5,46.5 89.5,45.5 Z"/></g>
<g><path style="opacity:1" fill="#239d4c" d="M 122.5,38.5 C 124.472,41.0836 125.472,44.0836 125.5,47.5C 123.446,44.9924 122.446,41.9924 122.5,38.5 Z"/></g>
<g><path style="opacity:1" fill="#25d366" d="M 79.5,47.5 C 79.7857,53.2586 79.4524,58.9252 78.5,64.5C 73.7337,65.144 69.067,66.144 64.5,67.5C 63.8333,67.5 63.5,67.1667 63.5,66.5C 62.7646,63.9385 61.4313,61.7718 59.5,60C 60.5398,53.7974 60.2065,47.6307 58.5,41.5C 57.0052,42.7053 55.6719,42.7053 54.5,41.5C 53.2529,39.822 51.5862,38.4887 49.5,37.5C 53.1932,37.2066 56.3599,35.8733 59,33.5C 60.7542,35.25 62.9208,35.9167 65.5,35.5C 65.6427,37.2624 65.3094,38.9291 64.5,40.5C 66.1935,44.3223 67.5268,43.989 68.5,39.5C 69.48,42.0865 69.8134,44.7531 69.5,47.5C 72.8333,47.5 76.1667,47.5 79.5,47.5 Z"/></g>
<g><path style="opacity:1" fill="#25d466" d="M 122.5,88.5 C 120.481,89.5656 118.481,90.7323 116.5,92C 116.957,92.414 117.291,92.914 117.5,93.5C 115.827,95.5225 115.16,97.8559 115.5,100.5C 112.5,100.833 110.833,102.5 110.5,105.5C 108.833,105.5 107.167,105.5 105.5,105.5C 105.374,103.8 104.707,102.3 103.5,101C 106.181,98.4425 105.515,97.2759 101.5,97.5C 101.813,94.7531 101.48,92.0865 100.5,89.5C 98.2606,87.8795 96.4272,88.2129 95,90.5C 94.5172,89.552 94.3505,88.552 94.5,87.5C 96.0181,85.2282 98.1848,83.8949 101,83.5C 104.007,73.4008 105.174,63.0674 104.5,52.5C 104.183,48.8284 105.849,47.1617 109.5,47.5C 110.167,50.1667 110.833,52.8333 111.5,55.5C 113.833,55.5 116.167,55.5 118.5,55.5C 118.5,54.5 118.5,53.5 118.5,52.5C 120.144,52.2865 121.644,52.6198 123,53.5C 123.697,57.5351 123.53,61.5351 122.5,65.5C 123.037,66.7412 123.704,67.9079 124.5,69C 123.362,72.1178 121.362,74.4512 118.5,76C 120.67,76.8112 122.337,78.1446 123.5,80C 122.652,82.7695 122.319,85.6029 122.5,88.5 Z"/></g>
<g><path style="opacity:1" fill="#f9fbfc" d="M 57.5,61.5 C 58.038,63.1172 58.3713,64.7839 58.5,66.5C 56.8333,66.5 55.1667,66.5 53.5,66.5C 52.8333,65.5 52.1667,64.5 51.5,63.5C 49.6477,58.7502 48.6477,53.7502 48.5,48.5C 51.1667,48.5 53.8333,48.5 56.5,48.5C 55.8333,52.8333 55.1667,57.1667 54.5,61.5C 55.5,61.5 56.5,61.5 57.5,61.5 Z"/></g>
<g><path style="opacity:1" fill="#259e53" d="M 3.5,40.5 C 3.25053,43.0021 2.91719,45.5021 2.5,48C 2.39174,49.6811 1.72507,50.8478 0.5,51.5C 0.742412,47.521 1.74241,43.8544 3.5,40.5 Z"/></g>
<g><path style="opacity:1" fill="#e4fdef" d="M 36.5,37.5 C 35.3208,40.6964 33.9875,43.8631 32.5,47C 33.2316,52.4385 34.0649,52.6052 35,47.5C 35.9487,45.9069 37.1154,44.5736 38.5,43.5C 38.1075,45.2838 37.4408,46.9505 36.5,48.5C 33.9971,53.7557 32.9971,59.4224 33.5,65.5C 32.8337,61.6475 32.167,57.6475 31.5,53.5C 29.0314,57.1059 28.0314,61.1059 28.5,65.5C 27.4682,60.6594 27.4682,55.6594 28.5,50.5C 30.0605,45.4844 32.7271,41.1511 36.5,37.5 Z"/></g>
<g><path style="opacity:1" fill="#40cc73" d="M 45.5,38.5 C 45.5,39.5 45.5,40.5 45.5,41.5C 48.5,41.5 51.5,41.5 54.5,41.5C 55.6719,42.7053 57.0052,42.7053 58.5,41.5C 60.2065,47.6307 60.5398,53.7974 59.5,60C 61.4313,61.7718 62.7646,63.9385 63.5,66.5C 60.865,65.5265 58.865,63.8598 57.5,61.5C 57.0183,60.5837 56.685,59.5837 56.5,58.5C 59.8174,52.3852 58.6507,47.3852 53,43.5C 49.6911,44.1422 47.6911,46.1422 47,49.5C 46.3333,51.5 46.3333,53.5 47,55.5C 48.1362,57.743 48.9695,60.0763 49.5,62.5C 47.5486,60.52 46.0486,58.1867 45,55.5C 44.8655,52.1277 44.0322,48.961 42.5,46C 45.5041,42.1177 44.8374,40.951 40.5,42.5C 40.3284,41.5084 40.6618,40.8417 41.5,40.5C 43.0618,40.2671 44.3951,39.6005 45.5,38.5 Z"/></g>
<g><path style="opacity:1" fill="#1b9b41" d="M 125.5,47.5 C 126.167,48.8333 126.833,50.1667 127.5,51.5C 127.5,53.1667 127.5,54.8333 127.5,56.5C 126.883,56.3893 126.383,56.056 126,55.5C 125.503,52.854 125.336,50.1873 125.5,47.5 Z"/></g>
<g><path style="opacity:1" fill="#27d267" d="M 49.5,62.5 C 50.1667,62.8333 50.8333,63.1667 51.5,63.5C 52.1667,64.5 52.8333,65.5 53.5,66.5C 54.1667,67.5 54.8333,68.5 55.5,69.5C 51.7366,67.8875 49.4033,69.2208 48.5,73.5C 47.5745,72.3595 46.7412,72.3595 46,73.5C 45.2316,77.9196 45.3982,82.2529 46.5,86.5C 43.6915,86.6933 41.0248,87.36 38.5,88.5C 40.0628,84.3387 40.7295,80.0054 40.5,75.5C 39.5,75.5 38.5,75.5 37.5,75.5C 37.5,75.1667 37.5,74.8333 37.5,74.5C 35.2354,65.9172 34.9021,57.2506 36.5,48.5C 37.4408,46.9505 38.1075,45.2838 38.5,43.5C 39.1667,43.1667 39.8333,42.8333 40.5,42.5C 44.8374,40.951 45.5041,42.1177 42.5,46C 44.0322,48.961 44.8655,52.1277 45,55.5C 46.0486,58.1867 47.5486,60.52 49.5,62.5 Z"/></g>
<g><path style="opacity:1" fill="#45ca77" d="M 27.5,50.5 C 27.8333,50.5 28.1667,50.5 28.5,50.5C 27.4682,55.6594 27.4682,60.6594 28.5,65.5C 28.5465,68.9686 29.2132,72.302 30.5,75.5C 26.8458,72.859 25.5124,69.1923 26.5,64.5C 26.2256,59.737 26.559,55.0704 27.5,50.5 Z"/></g>
<g><path style="opacity:1" fill="#e8fef0" d="M 57.5,61.5 C 56.5,61.5 55.5,61.5 54.5,61.5C 55.1667,57.1667 55.8333,52.8333 56.5,48.5C 53.8333,48.5 51.1667,48.5 48.5,48.5C 48.6477,53.7502 49.6477,58.7502 51.5,63.5C 50.8333,63.1667 50.1667,62.8333 49.5,62.5C 48.9695,60.0763 48.1362,57.743 47,55.5C 46.3333,53.5 46.3333,51.5 47,49.5C 47.6911,46.1422 49.6911,44.1422 53,43.5C 58.6507,47.3852 59.8174,52.3852 56.5,58.5C 56.685,59.5837 57.0183,60.5837 57.5,61.5 Z"/></g>
<g><path style="opacity:1" fill="#f8fcf8" d="M 33.5,65.5 C 33.4511,68.3743 33.7844,71.2077 34.5,74C 34.3176,76.5781 33.3176,77.0781 31.5,75.5C 31.1667,75.5 30.8333,75.5 30.5,75.5C 29.2132,72.302 28.5465,68.9686 28.5,65.5C 28.0314,61.1059 29.0314,57.1059 31.5,53.5C 32.167,57.6475 32.8337,61.6475 33.5,65.5 Z"/></g>
<g><path style="opacity:1" fill="#88e0aa" d="M 96.5,55.5 C 97.162,57.3035 97.4954,59.3035 97.5,61.5C 97.6019,65.1168 96.9352,68.4501 95.5,71.5C 96.1942,66.1951 96.5276,60.8617 96.5,55.5 Z"/></g>
<g><path style="opacity:1" fill="#5dd089" d="M 36.5,48.5 C 34.9021,57.2506 35.2354,65.9172 37.5,74.5C 35.7188,71.7259 34.3855,68.7259 33.5,65.5C 32.9971,59.4224 33.9971,53.7557 36.5,48.5 Z"/></g>
<g><path style="opacity:1" fill="#f0fdf6" d="M 74.5,23.5 C 83.1898,26.5115 90.5231,31.5115 96.5,38.5C 99.3019,42.4387 101.302,46.772 102.5,51.5C 105.038,64.9836 102.038,76.9836 93.5,87.5C 86.9293,92.7854 79.596,96.452 71.5,98.5C 66.6367,98.8195 61.97,98.4861 57.5,97.5C 54.1084,95.722 50.6084,94.0553 47,92.5C 43.401,94.3461 39.5677,94.8461 35.5,94C 39.5554,91.2796 43.8887,89.4463 48.5,88.5C 57.3268,92.9161 66.3268,93.5827 75.5,90.5C 85.4218,87.5779 92.0885,81.2445 95.5,71.5C 96.9352,68.4501 97.6019,65.1168 97.5,61.5C 97.4954,59.3035 97.162,57.3035 96.5,55.5C 94.9673,44.3044 88.9673,36.6378 78.5,32.5C 77.0697,31.4625 75.403,30.7959 73.5,30.5C 60.9245,27.58 50.2578,30.9133 41.5,40.5C 40.6618,40.8417 40.3284,41.5084 40.5,42.5C 39.8333,42.8333 39.1667,43.1667 38.5,43.5C 37.1154,44.5736 35.9487,45.9069 35,47.5C 34.0649,52.6052 33.2316,52.4385 32.5,47C 33.9875,43.8631 35.3208,40.6964 36.5,37.5C 38.1236,34.2099 40.4569,31.5433 43.5,29.5C 52.9813,23.9447 63.3146,21.9447 74.5,23.5 Z"/></g>
<g><path style="opacity:1" fill="#27d368" d="M 73.5,30.5 C 75.403,30.7959 77.0697,31.4625 78.5,32.5C 80.9103,34.4038 83.2437,36.5705 85.5,39C 83.5794,40.2408 83.246,41.7408 84.5,43.5C 85.1924,42.9747 85.6924,42.3081 86,41.5C 86.9487,43.0931 88.1154,44.4264 89.5,45.5C 89.5,46.5 89.5,47.5 89.5,48.5C 87.5,48.1667 85.5,47.8333 83.5,47.5C 83.8333,44.5 82.5,43.1667 79.5,43.5C 79.5,44.8333 79.5,46.1667 79.5,47.5C 76.1667,47.5 72.8333,47.5 69.5,47.5C 69.8134,44.7531 69.48,42.0865 68.5,39.5C 67.5268,43.989 66.1935,44.3223 64.5,40.5C 65.3094,38.9291 65.6427,37.2624 65.5,35.5C 62.9208,35.9167 60.7542,35.25 59,33.5C 56.3599,35.8733 53.1932,37.2066 49.5,37.5C 51.5862,38.4887 53.2529,39.822 54.5,41.5C 51.5,41.5 48.5,41.5 45.5,41.5C 45.5,40.5 45.5,39.5 45.5,38.5C 53.4444,31.6369 62.7777,28.9702 73.5,30.5 Z"/></g>
<g><path style="opacity:1" fill="#55cf85" d="M 73.5,30.5 C 62.7777,28.9702 53.4444,31.6369 45.5,38.5C 44.3951,39.6005 43.0618,40.2671 41.5,40.5C 50.2578,30.9133 60.9245,27.58 73.5,30.5 Z"/></g>
<g><path style="opacity:1" fill="#25d566" d="M 27.5,50.5 C 26.559,55.0704 26.2256,59.737 26.5,64.5C 24.6167,69.0176 25.45,73.0176 29,76.5C 29.4828,77.448 29.6495,78.448 29.5,79.5C 27.1667,79.5 24.8333,79.5 22.5,79.5C 22.3002,82.8043 23.6336,85.3043 26.5,87C 27.6454,89.1986 27.6454,91.3652 26.5,93.5C 25.9347,91.4904 24.9347,89.8237 23.5,88.5C 22.6143,89.325 22.281,90.325 22.5,91.5C 18.1751,89.4934 15.8418,90.8267 15.5,95.5C 13.901,95.2322 12.5676,95.5655 11.5,96.5C 10.5041,96.5858 9.67076,96.2524 9,95.5C 8.33802,93.1873 7.83802,90.854 7.5,88.5C 6.5,88.5 5.5,88.5 4.5,88.5C 4.5,86.8333 4.5,85.1667 4.5,83.5C 5.02087,79.5191 5.3542,75.5191 5.5,71.5C 7.5,71.5 9.5,71.5 11.5,71.5C 12.0555,67.0029 11.3888,62.8362 9.5,59C 12.1941,56.4475 11.5274,55.2808 7.5,55.5C 7.76202,56.9778 7.42869,58.3112 6.5,59.5C 5.76746,55.8261 5.1008,52.1594 4.5,48.5C 5.5,47.1667 6.5,47.1667 7.5,48.5C 6.35536,49.891 6.35536,51.2243 7.5,52.5C 10.0841,53.3928 12.7508,53.7261 15.5,53.5C 15.5,54.8333 15.5,56.1667 15.5,57.5C 16.8333,57.5 18.1667,57.5 19.5,57.5C 19.5,59.5 19.5,61.5 19.5,63.5C 25.7688,62.7834 27.1021,59.7834 23.5,54.5C 24.9037,51.0101 25.9037,47.3435 26.5,43.5C 27.4742,45.7427 27.8076,48.076 27.5,50.5 Z"/></g>
<g><path style="opacity:1" fill="#3ed077" d="M 78.5,64.5 C 80.8333,64.5 83.1667,64.5 85.5,64.5C 86.0803,68.649 85.4136,72.3157 83.5,75.5C 85.1788,72.9879 84.8454,70.9879 82.5,69.5C 80.5095,67.9394 78.1761,66.9394 75.5,66.5C 73.4706,67.5512 71.6373,68.8845 70,70.5C 67.7039,70.1412 65.8705,69.1412 64.5,67.5C 69.067,66.144 73.7337,65.144 78.5,64.5 Z"/></g>
<g><path style="opacity:1" fill="#e5feec" d="M 57.5,61.5 C 58.865,63.8598 60.865,65.5265 63.5,66.5C 63.5,67.1667 63.8333,67.5 64.5,67.5C 65.8705,69.1412 67.7039,70.1412 70,70.5C 71.6373,68.8845 73.4706,67.5512 75.5,66.5C 78.1761,66.9394 80.5095,67.9394 82.5,69.5C 79.8127,69.3359 77.146,69.5026 74.5,70C 74.8333,70.3333 75.1667,70.6667 75.5,71C 73.7216,71.704 71.8882,72.204 70,72.5C 66.7848,71.2622 63.6182,69.9289 60.5,68.5C 60.615,70.9468 61.615,72.9468 63.5,74.5C 60.8508,72.86 58.1841,71.1933 55.5,69.5C 54.8333,68.5 54.1667,67.5 53.5,66.5C 55.1667,66.5 56.8333,66.5 58.5,66.5C 58.3713,64.7839 58.038,63.1172 57.5,61.5 Z"/></g>
<g><path style="opacity:1" fill="#24d565" d="M 55.5,69.5 C 56.1079,70.7997 56.7745,72.1331 57.5,73.5C 57.3918,74.4419 57.0585,75.2753 56.5,76C 61.4773,76.3252 66.144,77.6586 70.5,80C 73.146,80.4974 75.8127,80.6641 78.5,80.5C 79.3331,82.7522 79.3331,84.9189 78.5,87C 70.6467,89.5986 62.6467,90.0986 54.5,88.5C 51.9752,87.36 49.3085,86.6933 46.5,86.5C 45.3982,82.2529 45.2316,77.9196 46,73.5C 46.7412,72.3595 47.5745,72.3595 48.5,73.5C 49.4033,69.2208 51.7366,67.8875 55.5,69.5 Z"/></g>
<g><path style="opacity:1" fill="#f3fbf3" d="M 82.5,69.5 C 84.8454,70.9879 85.1788,72.9879 83.5,75.5C 83.5,75.8333 83.5,76.1667 83.5,76.5C 81.2252,78.4168 78.5585,79.4168 75.5,79.5C 72.3441,79.257 69.3441,78.4237 66.5,77C 65.0577,76.6232 64.0577,75.7899 63.5,74.5C 61.615,72.9468 60.615,70.9468 60.5,68.5C 63.6182,69.9289 66.7848,71.2622 70,72.5C 71.8882,72.204 73.7216,71.704 75.5,71C 75.1667,70.6667 74.8333,70.3333 74.5,70C 77.146,69.5026 79.8127,69.3359 82.5,69.5 Z"/></g>
<g><path style="opacity:1" fill="#44c978" d="M 37.5,75.5 C 38.5,75.5 39.5,75.5 40.5,75.5C 40.7295,80.0054 40.0628,84.3387 38.5,88.5C 41.0248,87.36 43.6915,86.6933 46.5,86.5C 49.3085,86.6933 51.9752,87.36 54.5,88.5C 54.9175,89.2216 55.5842,89.7216 56.5,90C 62.8246,90.4995 69.1579,90.6662 75.5,90.5C 66.3268,93.5827 57.3268,92.9161 48.5,88.5C 48.2648,87.9033 47.7648,87.5699 47,87.5C 43.9739,88.8718 40.8073,89.5385 37.5,89.5C 37.255,86.1351 37.9217,82.9684 39.5,80C 38.9561,78.415 38.2894,76.915 37.5,75.5 Z"/></g>
<g><path style="opacity:1" fill="#209a4b" d="M -0.5,71.5 C 0.943157,72.3351 1.94316,73.6684 2.5,75.5C 3.16764,78.3056 3.83431,80.9723 4.5,83.5C 4.5,85.1667 4.5,86.8333 4.5,88.5C 2.37603,84.333 0.709367,79.9997 -0.5,75.5C -0.5,74.1667 -0.5,72.8333 -0.5,71.5 Z"/></g>
<g><path style="opacity:1" fill="#48ce78" d="M 102.5,51.5 C 103.167,51.8333 103.833,52.1667 104.5,52.5C 105.174,63.0674 104.007,73.4008 101,83.5C 98.1848,83.8949 96.0181,85.2282 94.5,87.5C 94.1667,87.5 93.8333,87.5 93.5,87.5C 102.038,76.9836 105.038,64.9836 102.5,51.5 Z"/></g>
<g><path style="opacity:1" fill="#39cf72" d="M 78.5,32.5 C 88.9673,36.6378 94.9673,44.3044 96.5,55.5C 96.5276,60.8617 96.1942,66.1951 95.5,71.5C 92.0885,81.2445 85.4218,87.5779 75.5,90.5C 69.1579,90.6662 62.8246,90.4995 56.5,90C 55.5842,89.7216 54.9175,89.2216 54.5,88.5C 62.6467,90.0986 70.6467,89.5986 78.5,87C 79.3331,84.9189 79.3331,82.7522 78.5,80.5C 75.8127,80.6641 73.146,80.4974 70.5,80C 66.144,77.6586 61.4773,76.3252 56.5,76C 57.0585,75.2753 57.3918,74.4419 57.5,73.5C 56.7745,72.1331 56.1079,70.7997 55.5,69.5C 58.1841,71.1933 60.8508,72.86 63.5,74.5C 64.0577,75.7899 65.0577,76.6232 66.5,77C 69.3441,78.4237 72.3441,79.257 75.5,79.5C 78.5585,79.4168 81.2252,78.4168 83.5,76.5C 83.5,78.5 83.5,80.5 83.5,82.5C 84.5,82.5 85.5,82.5 86.5,82.5C 86.5,81.5 86.5,80.5 86.5,79.5C 87.675,79.719 88.675,79.3857 89.5,78.5C 90.2162,76.0924 91.5495,74.0924 93.5,72.5C 94.8333,66.1667 94.8333,59.8333 93.5,53.5C 92.7379,54.6283 92.0712,55.7949 91.5,57C 90.6683,57.6877 90.0016,57.521 89.5,56.5C 90.2122,53.3522 90.8789,50.1855 91.5,47C 91.1639,45.9701 90.4972,45.4701 89.5,45.5C 88.1154,44.4264 86.9487,43.0931 86,41.5C 85.6924,42.3081 85.1924,42.9747 84.5,43.5C 83.246,41.7408 83.5794,40.2408 85.5,39C 83.2437,36.5705 80.9103,34.4038 78.5,32.5 Z"/></g>
<g><path style="opacity:1" fill="#20ab53" d="M 122.5,88.5 C 121.041,92.7522 119.041,96.7522 116.5,100.5C 116.167,100.5 115.833,100.5 115.5,100.5C 115.16,97.8559 115.827,95.5225 117.5,93.5C 117.291,92.914 116.957,92.414 116.5,92C 118.481,90.7323 120.481,89.5656 122.5,88.5 Z"/></g>
<g><path style="opacity:1" fill="#e2fceb" d="M 33.5,65.5 C 34.3855,68.7259 35.7188,71.7259 37.5,74.5C 37.5,74.8333 37.5,75.1667 37.5,75.5C 38.2894,76.915 38.9561,78.415 39.5,80C 37.9217,82.9684 37.255,86.1351 37.5,89.5C 40.8073,89.5385 43.9739,88.8718 47,87.5C 47.7648,87.5699 48.2648,87.9033 48.5,88.5C 43.8887,89.4463 39.5554,91.2796 35.5,94C 39.5677,94.8461 43.401,94.3461 47,92.5C 50.6084,94.0553 54.1084,95.722 57.5,97.5C 56.8333,97.5 56.1667,97.5 55.5,97.5C 52.7291,96.3666 49.8958,95.3666 47,94.5C 40.9741,96.536 34.8075,98.2027 28.5,99.5C 27.8761,99.0831 27.5427,98.4164 27.5,97.5C 28.8653,94.2001 29.8653,90.8668 30.5,87.5C 30.5,90.1667 30.5,92.8333 30.5,95.5C 33.838,95.8909 34.838,94.7243 33.5,92C 35.6246,88.0824 36.9579,83.9157 37.5,79.5C 36.675,78.6143 35.675,78.281 34.5,78.5C 34.0719,81.7846 33.0719,84.7846 31.5,87.5C 32.7052,83.4868 32.7052,79.4868 31.5,75.5C 33.3176,77.0781 34.3176,76.5781 34.5,74C 33.7844,71.2077 33.4511,68.3743 33.5,65.5 Z"/></g>
<g><path style="opacity:1" fill="#f9fbfa" d="M 30.5,87.5 C 30.8333,87.5 31.1667,87.5 31.5,87.5C 33.0719,84.7846 34.0719,81.7846 34.5,78.5C 35.675,78.281 36.675,78.6143 37.5,79.5C 36.9579,83.9157 35.6246,88.0824 33.5,92C 34.838,94.7243 33.838,95.8909 30.5,95.5C 30.5,92.8333 30.5,90.1667 30.5,87.5 Z"/></g>
<g><path style="opacity:1" fill="#29d368" d="M 93.5,87.5 C 93.8333,87.5 94.1667,87.5 94.5,87.5C 94.3505,88.552 94.5172,89.552 95,90.5C 96.4272,88.2129 98.2606,87.8795 100.5,89.5C 101.48,92.0865 101.813,94.7531 101.5,97.5C 105.515,97.2759 106.181,98.4425 103.5,101C 104.707,102.3 105.374,103.8 105.5,105.5C 106.038,107.117 106.371,108.784 106.5,110.5C 105.167,110.5 103.833,110.5 102.5,110.5C 102.5,111.5 102.5,112.5 102.5,113.5C 101.5,113.5 100.5,113.5 99.5,113.5C 99.5,114.5 99.5,115.5 99.5,116.5C 98.2652,116.279 97.2652,115.612 96.5,114.5C 96.3309,115.397 95.9976,116.397 95.5,117.5C 93.8437,115.978 92.677,116.311 92,118.5C 91.586,118.043 91.086,117.709 90.5,117.5C 89.8333,118.833 89.1667,120.167 88.5,121.5C 87.8165,121.137 87.1499,120.804 86.5,120.5C 84.4418,119.067 82.1085,118.4 79.5,118.5C 79.5,117.5 79.5,116.5 79.5,115.5C 82.1667,115.5 84.8333,115.5 87.5,115.5C 87.5,112.167 87.5,108.833 87.5,105.5C 85.4727,105.662 83.4727,105.495 81.5,105C 80.7433,103.488 79.7433,102.154 78.5,101C 73.8452,100.501 69.1785,100.334 64.5,100.5C 66.8333,99.8333 69.1667,99.1667 71.5,98.5C 79.596,96.452 86.9293,92.7854 93.5,87.5 Z"/></g>
<g><path style="opacity:1" fill="#26bd65" d="M 4.5,88.5 C 5.5,88.5 6.5,88.5 7.5,88.5C 7.83802,90.854 8.33802,93.1873 9,95.5C 9.67076,96.2524 10.5041,96.5858 11.5,96.5C 13.7283,99.1816 15.3949,102.182 16.5,105.5C 15.609,104.89 14.609,104.557 13.5,104.5C 13.1667,103.833 12.8333,103.167 12.5,102.5C 12.9118,100.027 11.9118,98.6941 9.5,98.5C 7.3256,95.4846 5.65893,92.1513 4.5,88.5 Z"/></g>
<g><path style="opacity:1" fill="#41ce76" d="M 55.5,97.5 C 55.5,97.8333 55.5,98.1667 55.5,98.5C 52.4816,98.6646 49.4816,98.498 46.5,98C 47.8882,97.1107 47.7215,96.6107 46,96.5C 44.6293,97.5812 43.1293,98.4145 41.5,99C 37.6272,99.2703 33.7938,99.7703 30,100.5C 29.2352,100.43 28.7352,100.097 28.5,99.5C 34.8075,98.2027 40.9741,96.536 47,94.5C 49.8958,95.3666 52.7291,96.3666 55.5,97.5 Z"/></g>
<g><path style="opacity:0.996" fill="#1b8141" d="M 9.5,98.5 C 11.9118,98.6941 12.9118,100.027 12.5,102.5C 11.0256,101.564 10.0256,100.23 9.5,98.5 Z"/></g>
<g><path style="opacity:1" fill="#5ed28c" d="M 55.5,97.5 C 56.1667,97.5 56.8333,97.5 57.5,97.5C 61.97,98.4861 66.6367,98.8195 71.5,98.5C 69.1667,99.1667 66.8333,99.8333 64.5,100.5C 62.1667,100.5 59.8333,100.5 57.5,100.5C 56.8333,99.8333 56.1667,99.1667 55.5,98.5C 55.5,98.1667 55.5,97.8333 55.5,97.5 Z"/></g>
<g><path style="opacity:1" fill="#26d066" d="M 26.5,64.5 C 25.5124,69.1923 26.8458,72.859 30.5,75.5C 30.8333,75.5 31.1667,75.5 31.5,75.5C 32.7052,79.4868 32.7052,83.4868 31.5,87.5C 31.1667,87.5 30.8333,87.5 30.5,87.5C 29.8653,90.8668 28.8653,94.2001 27.5,97.5C 27.5427,98.4164 27.8761,99.0831 28.5,99.5C 28.7352,100.097 29.2352,100.43 30,100.5C 33.7938,99.7703 37.6272,99.2703 41.5,99C 43.1293,98.4145 44.6293,97.5812 46,96.5C 47.7215,96.6107 47.8882,97.1107 46.5,98C 49.4816,98.498 52.4816,98.6646 55.5,98.5C 56.1667,99.1667 56.8333,99.8333 57.5,100.5C 53.7593,99.5985 51.7593,100.932 51.5,104.5C 49.5328,104.739 47.6995,104.406 46,103.5C 45.5,104 45,104.5 44.5,105C 45.624,105.249 46.624,105.749 47.5,106.5C 44.9135,107.48 42.2469,107.813 39.5,107.5C 39.719,106.325 39.3857,105.325 38.5,104.5C 37.5258,106.743 37.1924,109.076 37.5,111.5C 40.8333,111.5 44.1667,111.5 47.5,111.5C 47.5,112.833 47.5,114.167 47.5,115.5C 50.1667,115.5 52.8333,115.5 55.5,115.5C 55.5,116.5 55.5,117.5 55.5,118.5C 54.5,118.5 53.5,118.5 52.5,118.5C 52.5,119.5 52.5,120.5 52.5,121.5C 57.3593,120.012 62.3593,119.345 67.5,119.5C 67.5,118.167 67.5,116.833 67.5,115.5C 68.8333,115.5 70.1667,115.5 71.5,115.5C 72.3715,118.062 72.3715,120.728 71.5,123.5C 76.5,123.5 81.5,123.5 86.5,123.5C 82.5914,125.143 78.5914,126.476 74.5,127.5C 67.1667,127.5 59.8333,127.5 52.5,127.5C 50.8333,126.833 49.1667,126.167 47.5,125.5C 45.4855,124.076 43.1522,123.41 40.5,123.5C 36.8487,122.341 33.5154,120.674 30.5,118.5C 30.0269,117.094 29.0269,116.427 27.5,116.5C 26.9653,114.554 25.632,113.554 23.5,113.5C 22.4065,110.739 20.4065,109.073 17.5,108.5C 17.7373,107.209 17.404,106.209 16.5,105.5C 15.3949,102.182 13.7283,99.1816 11.5,96.5C 12.5676,95.5655 13.901,95.2322 15.5,95.5C 15.8418,90.8267 18.1751,89.4934 22.5,91.5C 22.281,90.325 22.6143,89.325 23.5,88.5C 24.9347,89.8237 25.9347,91.4904 26.5,93.5C 27.6454,91.3652 27.6454,89.1986 26.5,87C 23.6336,85.3043 22.3002,82.8043 22.5,79.5C 24.8333,79.5 27.1667,79.5 29.5,79.5C 29.6495,78.448 29.4828,77.448 29,76.5C 25.45,73.0176 24.6167,69.0176 26.5,64.5 Z"/></g>
<g><path style="opacity:1" fill="#25d466" d="M 57.5,100.5 C 59.8333,100.5 62.1667,100.5 64.5,100.5C 69.1785,100.334 73.8452,100.501 78.5,101C 79.7433,102.154 80.7433,103.488 81.5,105C 83.4727,105.495 85.4727,105.662 87.5,105.5C 87.5,108.833 87.5,112.167 87.5,115.5C 84.8333,115.5 82.1667,115.5 79.5,115.5C 79.5,116.5 79.5,117.5 79.5,118.5C 82.1085,118.4 84.4418,119.067 86.5,120.5C 86.5,121.5 86.5,122.5 86.5,123.5C 81.5,123.5 76.5,123.5 71.5,123.5C 72.3715,120.728 72.3715,118.062 71.5,115.5C 70.1667,115.5 68.8333,115.5 67.5,115.5C 67.5,116.833 67.5,118.167 67.5,119.5C 62.3593,119.345 57.3593,120.012 52.5,121.5C 52.5,120.5 52.5,119.5 52.5,118.5C 53.5,118.5 54.5,118.5 55.5,118.5C 55.5,117.5 55.5,116.5 55.5,115.5C 52.8333,115.5 50.1667,115.5 47.5,115.5C 47.5,114.167 47.5,112.833 47.5,111.5C 44.1667,111.5 40.8333,111.5 37.5,111.5C 37.1924,109.076 37.5258,106.743 38.5,104.5C 39.3857,105.325 39.719,106.325 39.5,107.5C 42.2469,107.813 44.9135,107.48 47.5,106.5C 46.624,105.749 45.624,105.249 44.5,105C 45,104.5 45.5,104 46,103.5C 47.6995,104.406 49.5328,104.739 51.5,104.5C 51.7593,100.932 53.7593,99.5985 57.5,100.5 Z"/></g>
<g><path style="opacity:1" fill="#16803e" d="M 13.5,104.5 C 14.609,104.557 15.609,104.89 16.5,105.5C 17.404,106.209 17.7373,107.209 17.5,108.5C 15.8333,107.5 14.5,106.167 13.5,104.5 Z"/></g>
<g><path style="opacity:1" fill="#1c9b50" d="M 115.5,100.5 C 115.833,100.5 116.167,100.5 116.5,100.5C 112.099,107.236 106.432,112.57 99.5,116.5C 99.5,115.5 99.5,114.5 99.5,113.5C 100.5,113.5 101.5,113.5 102.5,113.5C 102.5,112.5 102.5,111.5 102.5,110.5C 103.833,110.5 105.167,110.5 106.5,110.5C 106.371,108.784 106.038,107.117 105.5,105.5C 107.167,105.5 108.833,105.5 110.5,105.5C 110.833,102.5 112.5,100.833 115.5,100.5 Z"/></g>
<g><path style="opacity:0.722" fill="#126f37" d="M 17.5,108.5 C 20.4065,109.073 22.4065,110.739 23.5,113.5C 20.9108,112.581 18.9108,110.914 17.5,108.5 Z"/></g>
<g><path style="opacity:1" fill="#1b934a" d="M 23.5,113.5 C 25.632,113.554 26.9653,114.554 27.5,116.5C 25.5956,116.262 24.2623,115.262 23.5,113.5 Z"/></g>
<g><path style="opacity:0.435" fill="#056323" d="M 27.5,116.5 C 29.0269,116.427 30.0269,117.094 30.5,118.5C 28.9731,118.573 27.9731,117.906 27.5,116.5 Z"/></g>
<g><path style="opacity:1" fill="#20b158" d="M 99.5,116.5 C 95.6528,119.593 91.3195,121.926 86.5,123.5C 86.5,122.5 86.5,121.5 86.5,120.5C 87.1499,120.804 87.8165,121.137 88.5,121.5C 89.1667,120.167 89.8333,118.833 90.5,117.5C 91.086,117.709 91.586,118.043 92,118.5C 92.677,116.311 93.8437,115.978 95.5,117.5C 95.9976,116.397 96.3309,115.397 96.5,114.5C 97.2652,115.612 98.2652,116.279 99.5,116.5 Z"/></g>
<g><path style="opacity:0.937" fill="#177b33" d="M 40.5,123.5 C 43.1522,123.41 45.4855,124.076 47.5,125.5C 44.8478,125.59 42.5145,124.924 40.5,123.5 Z"/></g>
</svg>
