<svg width="172" height="57" viewBox="0 0 172 57" fill="none" xmlns="http://www.w3.org/2000/svg">
<rect x="0.0253906" y="0.000488281" width="171" height="57" rx="7" fill="#0C0D10"/>
<path d="M116.2 27.3618V30.6264H114.153V32.7674H116.2V40.042C116.2 42.526 117.324 43.5196 120.151 43.5196C120.647 43.5196 121.12 43.4605 121.535 43.3895V41.2722C121.18 41.3077 120.955 41.3313 120.565 41.3313C119.299 41.3313 118.743 40.7399 118.743 39.3914V32.7674H121.535V30.6264H118.743V27.3618H116.2Z" fill="white"/>
<path d="M128.736 43.6971C132.498 43.6971 134.804 41.1776 134.804 37.0021C134.804 32.8502 132.486 30.3189 128.736 30.3189C124.975 30.3189 122.656 32.8502 122.656 37.0021C122.656 41.1776 124.963 43.6971 128.736 43.6971ZM128.736 41.4378C126.524 41.4378 125.282 39.8173 125.282 37.0021C125.282 34.2105 126.524 32.5782 128.736 32.5782C130.936 32.5782 132.19 34.2105 132.19 37.0021C132.19 39.8055 130.936 41.4378 128.736 41.4378Z" fill="white"/>
<path d="M136.778 43.4487H139.321V35.8429C139.321 34.0331 140.681 32.8147 142.609 32.8147C143.059 32.8147 143.816 32.8975 144.029 32.9685V30.4608C143.757 30.3899 143.272 30.3544 142.893 30.3544C141.214 30.3544 139.782 31.277 139.416 32.5427H139.226V30.5673H136.778V43.4487Z" fill="white"/>
<path d="M150.343 32.4835C152.224 32.4835 153.454 33.7965 153.513 35.8192H147.008C147.15 33.8083 148.463 32.4835 150.343 32.4835ZM153.502 39.9711C153.028 40.9765 151.976 41.5324 150.438 41.5324C148.403 41.5324 147.09 40.1012 147.008 37.8419V37.7H156.104V36.8128C156.104 32.7674 153.939 30.3189 150.355 30.3189C146.724 30.3189 144.417 32.933 144.417 37.0494C144.417 41.1657 146.676 43.6971 150.367 43.6971C153.312 43.6971 155.37 42.2776 155.95 39.9711H153.502Z" fill="white"/>
<path d="M99.5222 38.6918C99.7183 41.8549 102.354 43.8778 106.277 43.8778C110.47 43.8778 113.094 41.7568 113.094 38.373C113.094 35.7126 111.598 34.2414 107.969 33.3955L106.02 32.9173C103.715 32.3779 102.783 31.6545 102.783 30.3918C102.783 28.798 104.23 27.7559 106.4 27.7559C108.46 27.7559 109.882 28.7734 110.139 30.404H112.812C112.653 27.4248 110.029 25.3284 106.437 25.3284C102.575 25.3284 100 27.4248 100 30.5757C100 33.1748 101.459 34.7195 104.659 35.4674L106.939 36.0191C109.281 36.5708 110.311 37.38 110.311 38.7286C110.311 40.2978 108.693 41.438 106.486 41.438C104.12 41.438 102.477 40.3714 102.244 38.6918H99.5222Z" fill="white"/>
<path d="M73.1777 30.3544C71.4271 30.3544 69.913 31.2297 69.1323 32.6965H68.9431V30.5673H66.4946V47.7306H69.0377V41.4969H69.2388C69.913 42.8572 71.368 43.6616 73.2014 43.6616C76.4543 43.6616 78.5243 41.0948 78.5243 37.0021C78.5243 32.9094 76.4543 30.3544 73.1777 30.3544ZM72.4562 41.3787C70.327 41.3787 68.9904 39.699 68.9904 37.0139C68.9904 34.317 70.327 32.6373 72.468 32.6373C74.6208 32.6373 75.9101 34.2815 75.9101 37.0021C75.9101 39.7345 74.6208 41.3787 72.4562 41.3787Z" fill="white"/>
<path d="M87.4232 30.3544C85.6725 30.3544 84.1585 31.2297 83.3778 32.6965H83.1885V30.5673H80.74V47.7306H83.2831V41.4969H83.4842C84.1585 42.8572 85.6134 43.6616 87.4468 43.6616C90.6997 43.6616 92.7697 41.0948 92.7697 37.0021C92.7697 32.9094 90.6997 30.3544 87.4232 30.3544ZM86.7016 41.3787C84.5725 41.3787 83.2358 39.699 83.2358 37.0139C83.2358 34.317 84.5725 32.6373 86.7134 32.6373C88.8663 32.6373 90.1556 34.2815 90.1556 37.0021C90.1556 39.7345 88.8663 41.3787 86.7016 41.3787Z" fill="white"/>
<path d="M61.9317 43.4487H64.8496L58.4621 25.7575H55.5075L49.12 43.4487H51.9398L53.5704 38.7531H60.3134L61.9317 43.4487ZM56.8438 28.9696H57.0522L59.6146 36.4482H54.2692L56.8438 28.9696Z" fill="white"/>
<path d="M50.8282 12.4136V20.9479H53.9096C56.4528 20.9479 57.9254 19.3806 57.9254 16.6541C57.9254 13.969 56.4409 12.4136 53.9096 12.4136H50.8282ZM52.1531 13.6201H53.7617C55.5301 13.6201 56.577 14.7438 56.577 16.6719C56.577 18.6295 55.5479 19.7414 53.7617 19.7414H52.1531V13.6201Z" fill="white"/>
<path d="M62.4357 21.0721C64.3164 21.0721 65.4697 19.8124 65.4697 17.7246C65.4697 15.6487 64.3105 14.383 62.4357 14.383C60.5549 14.383 59.3957 15.6487 59.3957 17.7246C59.3957 19.8124 60.549 21.0721 62.4357 21.0721ZM62.4357 19.9425C61.3297 19.9425 60.7087 19.1322 60.7087 17.7246C60.7087 16.3288 61.3297 15.5127 62.4357 15.5127C63.5357 15.5127 64.1626 16.3288 64.1626 17.7246C64.1626 19.1263 63.5357 19.9425 62.4357 19.9425Z" fill="white"/>
<path d="M75.291 14.5072H74.0194L72.8721 19.422H72.7715L71.4467 14.5072H70.2284L68.9036 19.422H68.8089L67.6556 14.5072H66.3663L68.1406 20.9479H69.4477L70.7725 16.2046H70.873L72.2037 20.9479H73.5226L75.291 14.5072Z" fill="white"/>
<path d="M76.7554 20.9479H78.027V17.1805C78.027 16.1751 78.6243 15.5482 79.5647 15.5482C80.5051 15.5482 80.9545 16.0627 80.9545 17.0977V20.9479H82.2261V16.7783C82.2261 15.2465 81.4336 14.383 79.9964 14.383C79.0265 14.383 78.3877 14.8148 78.0743 15.5304H77.9796V14.5072H76.7554V20.9479Z" fill="white"/>
<path d="M84.2287 20.9479H85.5003V11.9937H84.2287V20.9479Z" fill="white"/>
<path d="M90.2826 21.0721C92.1633 21.0721 93.3166 19.8124 93.3166 17.7246C93.3166 15.6487 92.1574 14.383 90.2826 14.383C88.4018 14.383 87.2426 15.6487 87.2426 17.7246C87.2426 19.8124 88.3959 21.0721 90.2826 21.0721ZM90.2826 19.9425C89.1766 19.9425 88.5556 19.1322 88.5556 17.7246C88.5556 16.3288 89.1766 15.5127 90.2826 15.5127C91.3827 15.5127 92.0096 16.3288 92.0096 17.7246C92.0096 19.1263 91.3827 19.9425 90.2826 19.9425Z" fill="white"/>
<path d="M97.1053 19.9839C96.4134 19.9839 95.9106 19.6468 95.9106 19.0672C95.9106 18.4994 96.3128 18.1978 97.2 18.1386L98.7732 18.0381V18.5763C98.7732 19.3747 98.0634 19.9839 97.1053 19.9839ZM96.78 21.0544C97.6258 21.0544 98.3296 20.6877 98.714 20.043H98.8146V20.9479H100.039V16.5477C100.039 15.1874 99.128 14.383 97.5134 14.383C96.0526 14.383 95.0117 15.0927 94.8816 16.1987H96.1117C96.2537 15.7433 96.7446 15.4831 97.4543 15.4831C98.3237 15.4831 98.7732 15.8675 98.7732 16.5477V17.1036L97.0284 17.2042C95.4966 17.2988 94.6332 17.9671 94.6332 19.1263C94.6332 20.3033 95.538 21.0544 96.78 21.0544Z" fill="white"/>
<path d="M104.354 21.0544C105.241 21.0544 105.992 20.6345 106.377 19.9307H106.477V20.9479H107.695V11.9937H106.424V15.5304H106.329C105.98 14.8207 105.235 14.4008 104.354 14.4008C102.727 14.4008 101.681 15.6901 101.681 17.7246C101.681 19.7651 102.716 21.0544 104.354 21.0544ZM104.715 15.5422C105.779 15.5422 106.448 16.388 106.448 17.7305C106.448 19.079 105.785 19.9129 104.715 19.9129C103.638 19.9129 102.994 19.0908 102.994 17.7246C102.994 16.3702 103.644 15.5422 104.715 15.5422Z" fill="white"/>
<path d="M115.941 21.0721C117.822 21.0721 118.975 19.8124 118.975 17.7246C118.975 15.6487 117.816 14.383 115.941 14.383C114.06 14.383 112.901 15.6487 112.901 17.7246C112.901 19.8124 114.055 21.0721 115.941 21.0721ZM115.941 19.9425C114.835 19.9425 114.214 19.1322 114.214 17.7246C114.214 16.3288 114.835 15.5127 115.941 15.5127C117.041 15.5127 117.668 16.3288 117.668 17.7246C117.668 19.1263 117.041 19.9425 115.941 19.9425Z" fill="white"/>
<path d="M120.658 20.9479H121.93V17.1805C121.93 16.1751 122.527 15.5482 123.468 15.5482C124.408 15.5482 124.858 16.0627 124.858 17.0977V20.9479H126.129V16.7783C126.129 15.2465 125.337 14.383 123.9 14.383C122.93 14.383 122.291 14.8148 121.977 15.5304H121.883V14.5072H120.658V20.9479Z" fill="white"/>
<path d="M131.986 12.9045V14.5368H130.962V15.6073H131.986V19.2446C131.986 20.4866 132.547 20.9834 133.961 20.9834C134.209 20.9834 134.446 20.9538 134.653 20.9183V19.8597C134.475 19.8774 134.363 19.8893 134.168 19.8893C133.535 19.8893 133.257 19.5935 133.257 18.9193V15.6073H134.653V14.5368H133.257V12.9045H131.986Z" fill="white"/>
<path d="M136.36 20.9479H137.631V17.1864C137.631 16.2106 138.211 15.5541 139.252 15.5541C140.151 15.5541 140.63 16.0745 140.63 17.1036V20.9479H141.901V16.7902C141.901 15.2583 141.056 14.3889 139.684 14.3889C138.714 14.3889 138.034 14.8207 137.72 15.5422H137.62V11.9937H136.36V20.9479Z" fill="white"/>
<path d="M146.489 15.4654C147.429 15.4654 148.044 16.1218 148.074 17.1332H144.821C144.892 16.1278 145.548 15.4654 146.489 15.4654ZM148.068 19.2091C147.831 19.7118 147.305 19.9898 146.536 19.9898C145.519 19.9898 144.862 19.2742 144.821 18.1445V18.0736H149.369V17.63C149.369 15.6073 148.287 14.383 146.495 14.383C144.679 14.383 143.526 15.6901 143.526 17.7483C143.526 19.8065 144.655 21.0721 146.5 21.0721C147.973 21.0721 149.002 20.3624 149.292 19.2091H148.068Z" fill="white"/>
<path d="M35.3212 28.9293C35.3521 26.5338 36.6385 24.2672 38.6793 23.0126C37.3919 21.1739 35.2354 20.0081 32.9919 19.9379C30.599 19.6867 28.2792 21.3698 27.0598 21.3698C25.8168 21.3698 23.9394 19.9628 21.9177 20.0044C19.2825 20.0895 16.8258 21.5878 15.5438 23.8916C12.7878 28.6631 14.8435 35.6756 17.4835 39.5325C18.8043 41.4212 20.348 43.5308 22.3678 43.456C24.3444 43.374 25.0826 42.1956 27.4685 42.1956C29.8322 42.1956 30.5248 43.456 32.5857 43.4084C34.7066 43.374 36.0429 41.5114 37.3174 39.6049C38.2664 38.2592 38.9967 36.7719 39.4811 35.1981C36.9886 34.1439 35.3241 31.6355 35.3212 28.9293Z" fill="white"/>
<path d="M31.4286 17.4014C32.585 16.0131 33.1547 14.2288 33.0168 12.4272C31.25 12.6128 29.618 13.4572 28.446 14.7922C27.2999 16.0965 26.7034 17.8495 26.8162 19.5822C28.5836 19.6004 30.3211 18.7789 31.4286 17.4014Z" fill="white"/>
</svg>
