<svg width="193" height="57" viewBox="0 0 193 57" fill="none" xmlns="http://www.w3.org/2000/svg">
<rect y="0.000976562" width="192.375" height="57" rx="5" fill="black"/>
<path d="M97.0938 30.9964C93.7422 30.9964 91.0105 33.5457 91.0105 37.0569C91.0105 40.5468 93.7422 43.1175 97.0938 43.1175C100.447 43.1175 103.179 40.5468 103.179 37.0569C103.177 33.5457 100.445 30.9964 97.0938 30.9964ZM97.0938 40.732C95.257 40.732 93.6738 39.2172 93.6738 37.0584C93.6738 34.8767 95.2584 33.3847 97.0938 33.3847C98.9306 33.3847 100.514 34.8767 100.514 37.0584C100.514 39.2158 98.9306 40.732 97.0938 40.732ZM83.8214 30.9964C80.4698 30.9964 77.738 33.5457 77.738 37.0569C77.738 40.5468 80.4698 43.1175 83.8214 43.1175C87.1744 43.1175 89.9061 40.5468 89.9061 37.0569C89.9061 33.5457 87.1744 30.9964 83.8214 30.9964ZM83.8214 40.732C81.9845 40.732 80.4014 39.2172 80.4014 37.0584C80.4014 34.8767 81.986 33.3847 83.8214 33.3847C85.6582 33.3847 87.2414 34.8767 87.2414 37.0584C87.2428 39.2158 85.6582 40.732 83.8214 40.732ZM68.0352 32.8575V35.4282H74.1884C74.0045 36.8745 73.5229 37.9305 72.7876 38.6643C71.8927 39.5592 70.4919 40.5468 68.0352 40.5468C64.2476 40.5468 61.2864 37.493 61.2864 33.7053C61.2864 29.9177 64.2476 26.8639 68.0352 26.8639C70.0787 26.8639 71.5706 27.6676 72.6722 28.7007L74.4862 26.8867C72.9472 25.4175 70.9052 24.2932 68.0352 24.2932C62.8468 24.2932 58.4849 28.5169 58.4849 33.7053C58.4849 38.8938 62.8468 43.1175 68.0352 43.1175C70.8353 43.1175 72.9486 42.1983 74.6002 40.4769C76.2988 38.7783 76.8275 36.39 76.8275 34.462C76.8275 33.8664 76.7819 33.3149 76.6892 32.856H68.0352V32.8575ZM132.599 34.8539C132.095 33.5001 130.556 30.9964 127.411 30.9964C124.289 30.9964 121.694 33.4531 121.694 37.0569C121.694 40.4541 124.266 43.1175 127.709 43.1175C130.486 43.1175 132.093 41.4189 132.76 40.4313L130.694 39.0534C130.006 40.0637 129.064 40.7292 127.709 40.7292C126.355 40.7292 125.39 40.1093 124.77 38.8923L132.874 35.5407L132.599 34.8539ZM124.334 36.8745C124.266 34.5318 126.148 33.3391 127.503 33.3391C128.559 33.3391 129.454 33.8678 129.753 34.6245L124.334 36.8745ZM117.746 42.7512H120.408V24.9373H117.746V42.7512ZM113.383 32.3516H113.292C112.695 31.6391 111.546 30.9964 110.101 30.9964C107.07 30.9964 104.293 33.6597 104.293 37.0812C104.293 40.4784 107.07 43.1189 110.101 43.1189C111.548 43.1189 112.695 42.4762 113.292 41.7423H113.383V42.6144C113.383 44.9329 112.143 46.1727 110.147 46.1727C108.517 46.1727 107.506 45.0027 107.093 44.0152L104.775 44.9799C105.44 46.5859 107.207 48.561 110.147 48.561C113.269 48.561 115.91 46.7241 115.91 42.2468V31.3655H113.384V32.3516H113.383ZM110.331 40.732C108.494 40.732 106.956 39.193 106.956 37.0812C106.956 34.9451 108.494 33.3847 110.331 33.3847C112.143 33.3847 113.567 34.9451 113.567 37.0812C113.567 39.193 112.143 40.732 110.331 40.732ZM145.074 24.9373H138.702V42.7512H141.36V36.0024H145.072C148.019 36.0024 150.917 33.8692 150.917 30.4706C150.917 27.072 148.02 24.9373 145.074 24.9373ZM145.142 33.5229H141.36V27.4168H145.142C147.13 27.4168 148.258 29.0627 148.258 30.4706C148.258 31.85 147.13 33.5229 145.142 33.5229ZM161.575 30.9651C159.65 30.9651 157.656 31.8129 156.831 33.6925L159.191 34.6772C159.695 33.6925 160.636 33.3705 161.621 33.3705C162.996 33.3705 164.394 34.1955 164.417 35.6619V35.8457C163.935 35.5707 162.903 35.1588 161.643 35.1588C159.1 35.1588 156.509 36.5568 156.509 39.1688C156.509 41.5528 158.595 43.0875 160.932 43.0875C162.719 43.0875 163.705 42.2853 164.324 41.3448H164.415V42.7199H166.983V35.8899C166.984 32.7292 164.622 30.9651 161.575 30.9651ZM161.253 40.7277C160.384 40.7277 159.168 40.2917 159.168 39.2144C159.168 37.8393 160.682 37.312 161.988 37.312C163.155 37.312 163.707 37.5642 164.417 37.9077C164.21 39.5592 162.789 40.7277 161.253 40.7277ZM176.334 31.3541L173.286 39.0776H173.195L170.031 31.3541H167.167L171.911 42.1485L169.206 48.1534H171.979L179.291 31.3541H176.334ZM152.385 42.7512H155.043V24.9373H152.385V42.7512Z" fill="white"/>
<path d="M67.5707 14.5973C67.5707 15.7914 67.2173 16.7419 66.5091 17.4515C65.7054 18.2951 64.6566 18.717 63.3684 18.717C62.1344 18.717 61.0841 18.2894 60.222 17.4344C59.3585 16.578 58.9267 15.5178 58.9267 14.2524C58.9267 12.9856 59.3585 11.9254 60.222 11.0704C61.0841 10.214 62.1344 9.78648 63.3684 9.78648C63.9812 9.78648 64.5668 9.90617 65.1226 10.1441C65.6798 10.3835 66.1258 10.7013 66.4592 11.0989L65.7083 11.8513C65.1425 11.1744 64.3631 10.8367 63.367 10.8367C62.4664 10.8367 61.6883 11.1531 61.0314 11.7858C60.3745 12.4185 60.0467 13.2407 60.0467 14.251C60.0467 15.2613 60.3745 16.0835 61.0314 16.7162C61.6883 17.3489 62.4664 17.6653 63.367 17.6653C64.3217 17.6653 65.1183 17.3475 65.7553 16.7105C66.1685 16.2959 66.4079 15.7187 66.4721 14.9792H63.367V13.9518H67.5095C67.5522 14.1755 67.5707 14.3906 67.5707 14.5973Z" fill="white"/>
<path d="M74.1401 11.0263H70.247V13.7367H73.7582V14.7641H70.247V17.4744H74.1401V18.5261H69.1484V9.97608H74.1401V11.0263Z" fill="white"/>
<path d="M78.7726 18.5261H77.674V11.0263H75.2857V9.97608H81.1609V11.0263H78.7726V18.5261Z" fill="white"/>
<path d="M85.4117 18.5261V9.97608H86.5103V18.5261H85.4117Z" fill="white"/>
<path d="M91.3826 18.5261H90.284V11.0263H87.8957V9.97608H93.7709V11.0263H91.3826V18.5261Z" fill="white"/>
<path d="M104.893 17.4217C104.052 18.2852 103.007 18.717 101.758 18.717C100.508 18.717 99.4635 18.2852 98.6242 17.4217C97.7834 16.5581 97.3645 15.5008 97.3645 14.2511C97.3645 13.0013 97.7834 11.944 98.6242 11.0804C99.4635 10.2169 100.508 9.78369 101.758 9.78369C103 9.78369 104.043 10.2183 104.887 11.0861C105.731 11.954 106.152 13.0085 106.152 14.2511C106.152 15.5008 105.732 16.5581 104.893 17.4217ZM99.435 16.7049C100.068 17.3462 100.841 17.6654 101.758 17.6654C102.674 17.6654 103.449 17.3447 104.08 16.7049C104.713 16.0637 105.031 15.2457 105.031 14.2511C105.031 13.2564 104.713 12.4385 104.08 11.7972C103.449 11.156 102.674 10.8368 101.758 10.8368C100.841 10.8368 100.068 11.1574 99.435 11.7972C98.8037 12.4385 98.4859 13.2564 98.4859 14.2511C98.4859 15.2457 98.8037 16.0637 99.435 16.7049Z" fill="white"/>
<path d="M107.694 18.5261V9.97608H109.031L113.186 16.6266H113.233L113.186 14.9793V9.97608H114.285V18.5261H113.138L108.79 11.5521H108.743L108.79 13.1994V18.5261H107.694Z" fill="white"/>
<path d="M67.5707 14.5973C67.5707 15.7914 67.2173 16.7419 66.5091 17.4515C65.7054 18.2951 64.6566 18.717 63.3684 18.717C62.1344 18.717 61.0841 18.2894 60.222 17.4344C59.3585 16.578 58.9267 15.5178 58.9267 14.2524C58.9267 12.9856 59.3585 11.9254 60.222 11.0704C61.0841 10.214 62.1344 9.78648 63.3684 9.78648C63.9812 9.78648 64.5668 9.90617 65.1226 10.1441C65.6798 10.3835 66.1258 10.7013 66.4592 11.0989L65.7083 11.8513C65.1425 11.1744 64.3631 10.8367 63.367 10.8367C62.4664 10.8367 61.6883 11.1531 61.0314 11.7858C60.3745 12.4185 60.0467 13.2407 60.0467 14.251C60.0467 15.2613 60.3745 16.0835 61.0314 16.7162C61.6883 17.3489 62.4664 17.6653 63.367 17.6653C64.3217 17.6653 65.1183 17.3475 65.7553 16.7105C66.1685 16.2959 66.4079 15.7187 66.4721 14.9792H63.367V13.9518H67.5095C67.5522 14.1755 67.5707 14.3906 67.5707 14.5973Z" stroke="white" stroke-width="0.2" stroke-miterlimit="10"/>
<path d="M74.1401 11.0263H70.247V13.7367H73.7582V14.7641H70.247V17.4744H74.1401V18.5261H69.1484V9.97608H74.1401V11.0263Z" stroke="white" stroke-width="0.2" stroke-miterlimit="10"/>
<path d="M78.7726 18.5261H77.674V11.0263H75.2857V9.97608H81.1609V11.0263H78.7726V18.5261Z" stroke="white" stroke-width="0.2" stroke-miterlimit="10"/>
<path d="M85.4117 18.5261V9.97608H86.5103V18.5261H85.4117Z" stroke="white" stroke-width="0.2" stroke-miterlimit="10"/>
<path d="M91.3826 18.5261H90.284V11.0263H87.8957V9.97608H93.7709V11.0263H91.3826V18.5261Z" stroke="white" stroke-width="0.2" stroke-miterlimit="10"/>
<path d="M104.893 17.4217C104.052 18.2852 103.007 18.717 101.758 18.717C100.508 18.717 99.4635 18.2852 98.6242 17.4217C97.7834 16.5581 97.3645 15.5008 97.3645 14.2511C97.3645 13.0013 97.7834 11.944 98.6242 11.0804C99.4635 10.2169 100.508 9.78369 101.758 9.78369C103 9.78369 104.043 10.2183 104.887 11.0861C105.731 11.954 106.152 13.0085 106.152 14.2511C106.152 15.5008 105.732 16.5581 104.893 17.4217ZM99.435 16.7049C100.068 17.3462 100.841 17.6654 101.758 17.6654C102.674 17.6654 103.449 17.3447 104.08 16.7049C104.713 16.0637 105.031 15.2457 105.031 14.2511C105.031 13.2564 104.713 12.4385 104.08 11.7972C103.449 11.156 102.674 10.8368 101.758 10.8368C100.841 10.8368 100.068 11.1574 99.435 11.7972C98.8037 12.4385 98.4859 13.2564 98.4859 14.2511C98.4859 15.2457 98.8037 16.0637 99.435 16.7049Z" stroke="white" stroke-width="0.2" stroke-miterlimit="10"/>
<path d="M107.694 18.5261V9.97608H109.031L113.186 16.6266H113.233L113.186 14.9793V9.97608H114.285V18.5261H113.138L108.79 11.5521H108.743L108.79 13.1994V18.5261H107.694Z" stroke="white" stroke-width="0.2" stroke-miterlimit="10"/>
<g filter="url(#filter0_ii_2_299)">
<path d="M14.8713 10.7427C14.4566 11.1816 14.2115 11.8627 14.2115 12.7448V44.2601C14.2115 45.1436 14.4566 45.8233 14.8713 46.2622L14.9768 46.3648L32.6311 28.7105V28.5025V28.2944L14.9768 10.6387L14.8713 10.7427Z" fill="url(#paint0_linear_2_299)"/>
<path d="M38.5149 34.5972L32.6311 28.7105V28.5025V28.2944L38.5164 22.4092L38.6489 22.4847L45.6214 26.4462C47.6121 27.5777 47.6121 29.4287 45.6214 30.5616L38.6489 34.5231L38.5149 34.5972Z" fill="url(#paint1_linear_2_299)"/>
<g filter="url(#filter1_i_2_299)">
<path d="M38.6489 34.5216L32.6297 28.5024L14.8713 46.2622C15.5268 46.9576 16.6113 47.0431 17.8325 46.3506L38.6489 34.5216Z" fill="url(#paint2_linear_2_299)"/>
</g>
<path d="M38.6489 22.4832L17.8325 10.6557C16.6113 9.96169 15.5268 10.0486 14.8713 10.744L32.6311 28.5038L38.6489 22.4832Z" fill="url(#paint3_linear_2_299)"/>
</g>
<defs>
<filter id="filter0_ii_2_299" x="14.2115" y="10.1768" width="32.9029" height="36.6521" filterUnits="userSpaceOnUse" color-interpolation-filters="sRGB">
<feFlood flood-opacity="0" result="BackgroundImageFix"/>
<feBlend mode="normal" in="SourceGraphic" in2="BackgroundImageFix" result="shape"/>
<feColorMatrix in="SourceAlpha" type="matrix" values="0 0 0 0 0 0 0 0 0 0 0 0 0 0 0 0 0 0 127 0" result="hardAlpha"/>
<feOffset dy="-0.15"/>
<feComposite in2="hardAlpha" operator="arithmetic" k2="-1" k3="1"/>
<feColorMatrix type="matrix" values="0 0 0 0 0 0 0 0 0 0 0 0 0 0 0 0 0 0 0.12 0"/>
<feBlend mode="normal" in2="shape" result="effect1_innerShadow_2_299"/>
<feColorMatrix in="SourceAlpha" type="matrix" values="0 0 0 0 0 0 0 0 0 0 0 0 0 0 0 0 0 0 127 0" result="hardAlpha"/>
<feOffset dy="0.15"/>
<feComposite in2="hardAlpha" operator="arithmetic" k2="-1" k3="1"/>
<feColorMatrix type="matrix" values="0 0 0 0 1 0 0 0 0 1 0 0 0 0 1 0 0 0 0.25 0"/>
<feBlend mode="normal" in2="effect1_innerShadow_2_299" result="effect2_innerShadow_2_299"/>
</filter>
<filter id="filter1_i_2_299" x="14.8713" y="28.5024" width="23.7775" height="18.3264" filterUnits="userSpaceOnUse" color-interpolation-filters="sRGB">
<feFlood flood-opacity="0" result="BackgroundImageFix"/>
<feBlend mode="normal" in="SourceGraphic" in2="BackgroundImageFix" result="shape"/>
<feColorMatrix in="SourceAlpha" type="matrix" values="0 0 0 0 0 0 0 0 0 0 0 0 0 0 0 0 0 0 127 0" result="hardAlpha"/>
<feOffset dy="-0.15"/>
<feComposite in2="hardAlpha" operator="arithmetic" k2="-1" k3="1"/>
<feColorMatrix type="matrix" values="0 0 0 0 0 0 0 0 0 0 0 0 0 0 0 0 0 0 0.08 0"/>
<feBlend mode="normal" in2="shape" result="effect1_innerShadow_2_299"/>
</filter>
<linearGradient id="paint0_linear_2_299" x1="31.0662" y1="12.4114" x2="7.15182" y2="36.3257" gradientUnits="userSpaceOnUse">
<stop stop-color="#00A0FF"/>
<stop offset="0.0066" stop-color="#00A1FF"/>
<stop offset="0.2601" stop-color="#00BEFF"/>
<stop offset="0.5122" stop-color="#00D2FF"/>
<stop offset="0.7604" stop-color="#00DFFF"/>
<stop offset="1" stop-color="#00E3FF"/>
</linearGradient>
<linearGradient id="paint1_linear_2_299" x1="48.2128" y1="28.5025" x2="13.7336" y2="28.5025" gradientUnits="userSpaceOnUse">
<stop stop-color="#FFE000"/>
<stop offset="0.4087" stop-color="#FFBD00"/>
<stop offset="0.7754" stop-color="#FFA500"/>
<stop offset="1" stop-color="#FF9C00"/>
</linearGradient>
<linearGradient id="paint2_linear_2_299" x1="35.3801" y1="31.7712" x2="2.94922" y2="64.2021" gradientUnits="userSpaceOnUse">
<stop stop-color="#FF3A44"/>
<stop offset="1" stop-color="#C31162"/>
</linearGradient>
<linearGradient id="paint3_linear_2_299" x1="10.3988" y1="0.252881" x2="24.8801" y2="14.7342" gradientUnits="userSpaceOnUse">
<stop stop-color="#32A071"/>
<stop offset="0.0685" stop-color="#2DA771"/>
<stop offset="0.4762" stop-color="#15CF74"/>
<stop offset="0.8009" stop-color="#06E775"/>
<stop offset="1" stop-color="#00F076"/>
</linearGradient>
</defs>
</svg>
