<svg width="815" height="369" viewBox="0 0 815 369" fill="none" xmlns="http://www.w3.org/2000/svg">
<g clip-path="url(#clip0_149_2)">
<path d="M1069 -466H-227V830H1069V-466Z" fill="white"/>
<path d="M1069 -466H-227V830H1069V-466Z" fill="white"/>
<path d="M1069 -466H-227V830H1069V-466Z" fill="white"/>
<path d="M297.881 75.6487H282.402L290.142 53.8674L297.881 75.6487ZM320.746 99.0497L295.902 37.8518H284.475L259.631 99.0497H274.121L278.532 86.7216H301.845L306.251 99.0497H320.746Z" fill="#009999"/>
<path d="M344.594 99.0497H380.053V86.8101H358.094V37.8518H344.594V99.0497Z" fill="#009999"/>
<path d="M420.104 77.1799H429.552C439.453 77.1799 448.271 69.8883 448.271 57.4716C448.271 45.8622 439.453 37.8518 429.552 37.8518H406.604V99.0497H420.104V77.1799ZM427.302 48.4716C431.265 48.4716 435.401 51.8883 435.401 57.4716C435.401 63.3206 431.265 66.5601 427.302 66.5601H420.104V48.4716H427.302Z" fill="#009999"/>
<path d="M506.685 37.8518V62.2372H486.524V37.8518H473.024V99.0497H486.524V74.482H506.685V99.0497H521.081V37.8518H506.685Z" fill="#009999"/>
<path d="M583.181 75.6487H567.702L575.441 53.8674L583.181 75.6487ZM606.045 99.0497L581.202 37.8518H569.775L544.931 99.0497H559.42L563.832 86.7216H587.144L591.551 99.0497H606.045Z" fill="#009999"/>
<path d="M74.2051 183.549H58.7259L66.4655 161.768L74.2051 183.549ZM97.0697 206.95L72.2259 145.752H60.7988L35.9551 206.95H50.4447L54.8561 194.622H78.1686L82.5749 206.95H97.0697Z" fill="#009999"/>
<path d="M156.647 145.752V181.122C156.647 189.581 154.126 194.351 144.856 194.351C135.678 194.351 133.069 189.581 133.069 181.122V145.752H119.569V183.101C119.569 199.388 128.928 207.851 144.856 207.851C160.788 207.851 170.147 199.388 170.147 183.101V145.752H156.647Z" fill="#009999"/>
<path d="M223.609 157.992H241.067V145.752H192.645V157.992H210.109V206.95H223.609V157.992Z" fill="#009999"/>
<path d="M312.168 176.263C312.168 185.711 303.616 194.351 294.168 194.351C284.715 194.351 276.168 185.711 276.168 176.263C276.168 166.81 284.715 158.263 294.168 158.263C303.616 158.263 312.168 166.81 312.168 176.263ZM325.668 176.351C325.668 159.429 311.085 144.851 294.168 144.851C277.246 144.851 262.668 159.429 262.668 176.351C262.668 193.268 277.246 207.851 294.168 207.851C311.085 207.851 325.668 193.268 325.668 176.351Z" fill="#009999"/>
<path d="M428.536 206.95L416.656 145.752H400.635L387.947 188.68L375.166 145.752H359.145L347.265 206.95H362.119L369.317 164.742L381.286 206.95H394.515L406.489 164.742L413.687 206.95H428.536Z" fill="#009999"/>
<path d="M485.685 183.549H470.206L477.945 161.768L485.685 183.549ZM508.549 206.95L483.706 145.752H472.279L447.435 206.95H461.924L466.336 194.622H489.648L494.055 206.95H508.549Z" fill="#009999"/>
<path d="M558.408 157.992H575.867V145.752H527.445V157.992H544.908V206.95H558.408V157.992Z" fill="#009999"/>
<path d="M613.218 206.95V145.752H599.718V206.95H613.218Z" fill="#009999"/>
<path d="M689.268 176.263C689.268 185.711 680.716 194.351 671.268 194.351C661.815 194.351 653.268 185.711 653.268 176.263C653.268 166.81 661.815 158.263 671.268 158.263C680.716 158.263 689.268 166.81 689.268 176.263ZM702.768 176.351C702.768 159.429 688.184 144.851 671.268 144.851C654.346 144.851 639.768 159.429 639.768 176.351C639.768 193.268 654.346 207.851 671.268 207.851C688.184 207.851 702.768 193.268 702.768 176.351Z" fill="#009999"/>
<path d="M777.375 206.95V145.752H763.875V183.909L742.818 145.752H729.318V206.95H742.818V168.789L763.875 206.95H777.375Z" fill="#009999"/>
<path d="M294.766 73.0574L302.505 94.7189" stroke="white" stroke-width="4.0442"/>
<path d="M69.5051 176.636L77.9947 200.162" stroke="white" stroke-width="4.02906"/>
<path d="M483.187 182.636L491.677 206.162" stroke="white" stroke-width="4.02906"/>
<path d="M579.875 72.3853L587.927 94.9999" stroke="white" stroke-width="4.021"/>
<path d="M311.245 277.45C317.183 277.45 323.308 279.883 326.277 286.362H341.126C336.896 273.669 324.745 264.851 311.245 264.851C293.964 264.851 279.745 279.07 279.745 296.351C279.745 313.633 293.964 327.851 311.245 327.851C328.704 327.851 342.657 313.721 342.657 296.351V294.278H312.506V304.45H328.073C324.745 313.721 317.183 315.612 311.245 315.612C301.527 315.612 293.428 306.883 293.428 296.528C293.428 286.179 301.527 277.45 311.245 277.45Z" fill="#009999"/>
<path d="M445.524 326.95L433.644 265.752H417.623L404.935 308.679L392.154 265.752H376.133L364.253 326.95H379.107L386.305 284.742L398.274 326.95H411.503L423.477 284.742L430.675 326.95H445.524Z" fill="#009999"/>
<path d="M498.897 309.039C498.897 313.091 495.475 316.419 491.423 316.419H482.876V301.658H491.423C495.475 301.658 498.897 305.08 498.897 309.039ZM494.663 283.481C494.663 287.351 491.423 290.591 487.553 290.591H482.876V276.372H487.553C491.423 276.372 494.663 279.518 494.663 283.481ZM512.663 309.398C512.663 301.122 507.085 295.632 500.246 294.013C504.835 291.94 507.538 287.263 507.538 281.049C507.538 272.679 500.876 265.752 490.434 265.752H469.376V326.95H494.126C505.824 326.95 512.663 319.929 512.663 309.398Z" fill="#009999"/>
<path d="M570.628 265.752V290.138H550.466V265.752H536.966V326.95H550.466V302.382H570.628V326.95H585.023V265.752H570.628Z" fill="#009999"/>
</g>
<defs>
<clipPath id="clip0_149_2">
<rect width="815" height="369" fill="white"/>
</clipPath>
</defs>
</svg>
